<svg width="971" height="971" viewBox="0 0 971 971" fill="none" xmlns="http://www.w3.org/2000/svg">
<path fill-rule="evenodd" clip-rule="evenodd" d="M964.258 244.056C964.284 244.149 964.229 244.245 964.134 244.271L329.113 414.67C329.018 414.695 328.92 414.64 328.894 414.547C328.868 414.454 328.924 414.358 329.019 414.333L964.04 243.934C964.135 243.908 964.233 243.963 964.258 244.056Z" fill="#6B7280"/>
<path fill-rule="evenodd" clip-rule="evenodd" d="M836.405 85.6013C836.553 85.5195 836.741 85.5715 836.825 85.7174L970.311 319.486C970.394 319.632 970.341 319.816 970.193 319.898C970.044 319.98 969.856 319.928 969.773 319.782L836.287 86.0136C836.203 85.8677 836.256 85.6831 836.405 85.6013Z" fill="#6B7280"/>
<path fill-rule="evenodd" clip-rule="evenodd" d="M970.267 586.3C970.384 586.421 970.378 586.613 970.254 586.728L567.018 959.024C566.894 959.138 566.699 959.132 566.582 959.01C566.466 958.889 566.472 958.697 566.596 958.582L969.831 586.286C969.955 586.172 970.15 586.178 970.267 586.3Z" fill="#6B7280"/>
<path fill-rule="evenodd" clip-rule="evenodd" d="M970.283 571.453C970.389 571.584 970.368 571.774 970.235 571.879L567 890.124C566.868 890.229 566.673 890.208 566.567 890.078C566.46 889.948 566.481 889.757 566.614 889.652L969.849 571.407C969.982 571.302 970.176 571.323 970.283 571.453Z" fill="#6B7280"/>
<path fill-rule="evenodd" clip-rule="evenodd" d="M305.177 269.09C305.237 269.247 305.156 269.421 304.996 269.48L0.416461 381.192C0.25688 381.25 0.0791916 381.171 0.0195833 381.014C-0.040025 380.857 0.041019 380.683 0.2006 380.624L304.78 268.912C304.94 268.854 305.117 268.933 305.177 269.09Z" fill="#6B7280"/>
<path fill-rule="evenodd" clip-rule="evenodd" d="M270.662 269.115C270.707 268.953 270.877 268.859 271.042 268.904L836.638 423.391C836.803 423.435 836.899 423.602 836.853 423.763C836.807 423.925 836.637 424.019 836.473 423.974L270.876 269.488C270.712 269.443 270.616 269.276 270.662 269.115Z" fill="#6B7280"/>
<path fill-rule="evenodd" clip-rule="evenodd" d="M0.0139361 593.85C0.0644163 593.69 0.237232 593.601 0.399932 593.651L326.476 692.992C326.639 693.041 326.73 693.211 326.679 693.371C326.629 693.53 326.456 693.62 326.293 693.57L0.217127 594.229C0.0544274 594.18 -0.0365442 594.01 0.0139361 593.85Z" fill="#6B7280"/>
<path fill-rule="evenodd" clip-rule="evenodd" d="M0.0263396 622.193C0.0951235 622.04 0.277222 621.971 0.433069 622.038L617.849 889.611C618.005 889.679 618.075 889.858 618.007 890.011C617.938 890.164 617.756 890.233 617.6 890.165L0.18398 622.592C0.0281337 622.525 -0.0424443 622.346 0.0263396 622.193Z" fill="#6B7280"/>
<path fill-rule="evenodd" clip-rule="evenodd" d="M0.03354 650.557C0.110721 650.408 0.296397 650.349 0.448261 650.425L617.864 958.536C618.016 958.611 618.077 958.794 617.999 958.943C617.922 959.092 617.737 959.151 617.585 959.076L0.168765 650.965C0.0169018 650.889 -0.0436405 650.706 0.03354 650.557Z" fill="#6B7280"/>
<path fill-rule="evenodd" clip-rule="evenodd" d="M594.075 384.458C594.11 384.294 594.273 384.189 594.44 384.223L970.104 460.359C970.271 460.393 970.378 460.553 970.344 460.717C970.31 460.881 970.146 460.986 969.98 460.953L594.315 384.816C594.148 384.782 594.041 384.622 594.075 384.458Z" fill="#6B7280"/>
<path fill-rule="evenodd" clip-rule="evenodd" d="M635.018 387.156C635.041 387.322 634.923 387.475 634.754 387.497L0.349596 471.275C0.180766 471.298 0.0254944 471.181 0.00278836 471.015C-0.0199177 470.85 0.0985396 470.697 0.26737 470.675L634.672 386.897C634.841 386.874 634.996 386.991 635.018 387.156Z" fill="#6B7280"/>
<path fill-rule="evenodd" clip-rule="evenodd" d="M0.0109612 588.012C0.0558142 587.851 0.225398 587.756 0.389738 587.8L652.565 762.579C652.73 762.623 652.826 762.789 652.782 762.951C652.737 763.112 652.567 763.207 652.403 763.163L0.227311 588.384C0.0629711 588.34 -0.0338919 588.174 0.0109612 588.012Z" fill="#6B7280"/>
<path fill-rule="evenodd" clip-rule="evenodd" d="M970.308 551.011C970.394 551.155 970.345 551.341 970.198 551.425L603.455 763.131C603.308 763.216 603.119 763.167 603.033 763.023C602.946 762.879 602.995 762.693 603.142 762.609L969.886 550.903C970.032 550.818 970.221 550.867 970.308 551.011Z" fill="#6B7280"/>
<path fill-rule="evenodd" clip-rule="evenodd" d="M898.773 106.033C898.83 106.191 898.747 106.364 898.586 106.421L0.412704 422.872C0.252363 422.929 0.0757408 422.847 0.0182078 422.689C-0.0393252 422.532 0.0440171 422.358 0.204358 422.302L898.378 105.85C898.539 105.794 898.715 105.876 898.773 106.033Z" fill="#6B7280"/>
<path fill-rule="evenodd" clip-rule="evenodd" d="M326.693 490.632C326.696 490.799 326.561 490.938 326.391 490.941L0.314686 497.418C0.144371 497.421 0.0035096 497.288 6.43752e-05 497.121C-0.00338085 496.954 0.131894 496.816 0.30221 496.812L326.378 490.335C326.548 490.332 326.689 490.465 326.693 490.632Z" fill="#6B7280"/>
<path fill-rule="evenodd" clip-rule="evenodd" d="M270.651 490.633C270.654 490.466 270.794 490.333 270.965 490.335L970.048 502.334C970.218 502.337 970.354 502.475 970.351 502.642C970.348 502.809 970.207 502.942 970.037 502.939L270.954 490.941C270.783 490.938 270.648 490.8 270.651 490.633Z" fill="#6B7280"/>
<path fill-rule="evenodd" clip-rule="evenodd" d="M970.341 523.6C970.383 523.762 970.283 523.927 970.118 523.968L287.549 693.574C287.383 693.616 287.216 693.517 287.174 693.355C287.132 693.193 287.232 693.028 287.397 692.987L969.967 523.381C970.132 523.34 970.3 523.438 970.341 523.6Z" fill="#6B7280"/>
<path fill-rule="evenodd" clip-rule="evenodd" d="M836.469 78.3944C836.555 78.3472 836.663 78.3772 836.711 78.4614L970.197 312.253C970.245 312.337 970.215 312.444 970.129 312.491C970.043 312.538 969.935 312.508 969.887 312.424L836.401 78.6323C836.353 78.5481 836.383 78.4416 836.469 78.3944Z" fill="#6B7280"/>
<path fill-rule="evenodd" clip-rule="evenodd" d="M970.172 579.093C970.239 579.164 970.236 579.274 970.164 579.34L566.929 951.613C566.858 951.679 566.745 951.676 566.678 951.605C566.61 951.535 566.614 951.425 566.685 951.358L969.92 579.086C969.992 579.02 970.105 579.023 970.172 579.093Z" fill="#6B7280"/>
<path fill-rule="evenodd" clip-rule="evenodd" d="M970.181 564.238C970.243 564.313 970.23 564.423 970.154 564.484L566.919 882.706C566.842 882.766 566.73 882.754 566.669 882.679C566.607 882.604 566.619 882.494 566.696 882.433L969.931 564.211C970.008 564.151 970.119 564.163 970.181 564.238Z" fill="#6B7280"/>
<path fill-rule="evenodd" clip-rule="evenodd" d="M305.055 261.816C305.089 261.906 305.043 262.007 304.95 262.041L0.370897 373.753C0.278831 373.787 0.176319 373.741 0.141929 373.65C0.10754 373.56 0.154296 373.459 0.246362 373.426L304.826 261.713C304.918 261.68 305.02 261.726 305.055 261.816Z" fill="#6B7280"/>
<path fill-rule="evenodd" clip-rule="evenodd" d="M270.788 261.83C270.814 261.737 270.912 261.683 271.007 261.709L836.603 416.219C836.698 416.244 836.754 416.341 836.727 416.434C836.701 416.527 836.603 416.581 836.508 416.555L270.911 262.046C270.817 262.02 270.761 261.923 270.788 261.83Z" fill="#6B7280"/>
<path fill-rule="evenodd" clip-rule="evenodd" d="M0.138668 586.593C0.167785 586.501 0.267483 586.449 0.36135 586.478L326.437 685.796C326.531 685.824 326.584 685.922 326.554 686.014C326.525 686.106 326.426 686.158 326.332 686.129L0.255908 586.812C0.162041 586.783 0.109551 586.685 0.138668 586.593Z" fill="#6B7280"/>
<path fill-rule="evenodd" clip-rule="evenodd" d="M0.145825 614.949C0.185505 614.861 0.290561 614.821 0.380473 614.86L617.796 882.41C617.886 882.449 617.927 882.552 617.887 882.64C617.848 882.729 617.743 882.768 617.653 882.73L0.236779 615.18C0.146866 615.141 0.106145 615.038 0.145825 614.949Z" fill="#6B7280"/>
<path fill-rule="evenodd" clip-rule="evenodd" d="M0.149979 643.319C0.194503 643.233 0.301624 643.198 0.389238 643.242L617.805 951.33C617.893 951.374 617.928 951.479 617.883 951.565C617.839 951.651 617.732 951.685 617.644 951.641L0.228001 643.554C0.140386 643.51 0.105454 643.405 0.149979 643.319Z" fill="#6B7280"/>
<path fill-rule="evenodd" clip-rule="evenodd" d="M594.203 377.187C594.223 377.093 594.317 377.032 594.413 377.052L970.078 453.165C970.174 453.184 970.236 453.277 970.216 453.371C970.196 453.466 970.102 453.527 970.006 453.507L594.341 377.394C594.245 377.374 594.183 377.282 594.203 377.187Z" fill="#6B7280"/>
<path fill-rule="evenodd" clip-rule="evenodd" d="M634.889 379.877C634.902 379.973 634.834 380.06 634.737 380.073L0.332321 463.852C0.234919 463.864 0.14534 463.797 0.13224 463.702C0.11914 463.606 0.187481 463.518 0.284883 463.505L634.689 379.727C634.787 379.714 634.876 379.781 634.889 379.877Z" fill="#6B7280"/>
<path fill-rule="evenodd" clip-rule="evenodd" d="M0.136953 580.751C0.162827 580.658 0.260662 580.603 0.355474 580.628L652.531 755.384C652.626 755.409 652.682 755.505 652.656 755.598C652.63 755.691 652.532 755.746 652.437 755.721L0.261778 580.965C0.166966 580.94 0.11108 580.844 0.136953 580.751Z" fill="#6B7280"/>
<path fill-rule="evenodd" clip-rule="evenodd" d="M970.195 543.757C970.245 543.84 970.217 543.947 970.132 543.996L603.389 755.702C603.304 755.751 603.195 755.723 603.145 755.64C603.095 755.556 603.124 755.449 603.208 755.4L969.952 543.695C970.037 543.646 970.146 543.674 970.195 543.757Z" fill="#6B7280"/>
<path fill-rule="evenodd" clip-rule="evenodd" d="M898.65 98.7579C898.683 98.8487 898.635 98.9487 898.542 98.9813L0.36873 415.433C0.276225 415.465 0.174328 415.418 0.141136 415.327C0.107944 415.237 0.156026 415.137 0.24853 415.104L898.422 98.6524C898.515 98.6198 898.617 98.667 898.65 98.7579Z" fill="#6B7280"/>
<path fill-rule="evenodd" clip-rule="evenodd" d="M326.562 483.34C326.564 483.436 326.486 483.516 326.388 483.518L0.312168 489.971C0.213909 489.973 0.132649 489.897 0.130668 489.8C0.128688 489.704 0.206737 489.624 0.304996 489.622L326.381 483.168C326.479 483.166 326.56 483.243 326.562 483.34Z" fill="#6B7280"/>
<path fill-rule="evenodd" clip-rule="evenodd" d="M270.781 483.34C270.783 483.243 270.864 483.167 270.962 483.168L970.046 495.167C970.144 495.168 970.222 495.248 970.221 495.344C970.219 495.441 970.138 495.518 970.039 495.516L270.956 483.518C270.858 483.516 270.78 483.436 270.781 483.34Z" fill="#6B7280"/>
<path fill-rule="evenodd" clip-rule="evenodd" d="M970.215 516.335C970.239 516.428 970.181 516.523 970.086 516.547L287.517 686.13C287.421 686.154 287.325 686.097 287.3 686.004C287.276 685.91 287.334 685.815 287.429 685.792L969.999 516.208C970.094 516.184 970.191 516.241 970.215 516.335Z" fill="#6B7280"/>
<path fill-rule="evenodd" clip-rule="evenodd" d="M836.469 91.3019C836.554 91.2547 836.663 91.2847 836.711 91.3688L970.197 325.137C970.245 325.221 970.215 325.328 970.129 325.375C970.043 325.422 969.935 325.392 969.887 325.308L836.401 91.5398C836.353 91.4556 836.383 91.3491 836.469 91.3019Z" fill="#6B7280"/>
<path fill-rule="evenodd" clip-rule="evenodd" d="M970.172 592.001C970.239 592.071 970.236 592.182 970.164 592.248L566.929 964.521C566.858 964.587 566.745 964.583 566.678 964.513C566.61 964.443 566.614 964.332 566.685 964.266L969.92 591.993C969.992 591.927 970.105 591.931 970.172 592.001Z" fill="#6B7280"/>
<path fill-rule="evenodd" clip-rule="evenodd" d="M970.181 577.146C970.243 577.221 970.23 577.331 970.154 577.391L566.919 895.613C566.842 895.674 566.73 895.662 566.669 895.587C566.607 895.511 566.619 895.401 566.696 895.341L969.931 577.119C970.008 577.058 970.119 577.07 970.181 577.146Z" fill="#6B7280"/>
<path fill-rule="evenodd" clip-rule="evenodd" d="M305.055 274.723C305.089 274.814 305.043 274.915 304.95 274.948L0.370897 386.66C0.278831 386.694 0.176319 386.648 0.141929 386.558C0.10754 386.467 0.154296 386.367 0.246362 386.333L304.826 274.621C304.918 274.587 305.02 274.633 305.055 274.723Z" fill="#6B7280"/>
<path fill-rule="evenodd" clip-rule="evenodd" d="M270.788 274.738C270.814 274.645 270.912 274.59 271.007 274.616L836.603 429.126C836.698 429.152 836.754 429.248 836.727 429.341C836.701 429.434 836.603 429.489 836.508 429.463L270.911 274.953C270.817 274.927 270.761 274.831 270.788 274.738Z" fill="#6B7280"/>
<path fill-rule="evenodd" clip-rule="evenodd" d="M0.138668 599.5C0.167785 599.408 0.267483 599.357 0.36135 599.385L326.437 698.703C326.531 698.732 326.584 698.829 326.554 698.922C326.525 699.014 326.426 699.065 326.332 699.037L0.255908 599.719C0.162041 599.69 0.109551 599.593 0.138668 599.5Z" fill="#6B7280"/>
<path fill-rule="evenodd" clip-rule="evenodd" d="M0.145825 627.857C0.185505 627.769 0.290561 627.729 0.380473 627.768L617.796 895.317C617.886 895.356 617.927 895.459 617.887 895.548C617.848 895.636 617.743 895.676 617.653 895.637L0.236779 628.087C0.146866 628.048 0.106145 627.945 0.145825 627.857Z" fill="#6B7280"/>
<path fill-rule="evenodd" clip-rule="evenodd" d="M0.149979 656.226C0.194503 656.14 0.301624 656.106 0.389238 656.15L617.805 964.237C617.893 964.281 617.928 964.386 617.883 964.472C617.839 964.558 617.732 964.593 617.644 964.549L0.228001 656.461C0.140386 656.417 0.105454 656.312 0.149979 656.226Z" fill="#6B7280"/>
<path fill-rule="evenodd" clip-rule="evenodd" d="M594.203 390.095C594.223 390 594.317 389.94 594.413 389.959L970.078 466.072C970.174 466.092 970.236 466.184 970.216 466.279C970.196 466.373 970.102 466.434 970.006 466.415L594.341 390.301C594.245 390.282 594.183 390.189 594.203 390.095Z" fill="#6B7280"/>
<path fill-rule="evenodd" clip-rule="evenodd" d="M634.889 392.784C634.902 392.88 634.834 392.968 634.737 392.981L0.332321 476.759C0.234919 476.772 0.14534 476.705 0.13224 476.609C0.11914 476.514 0.187481 476.426 0.284883 476.413L634.689 392.634C634.787 392.622 634.876 392.689 634.889 392.784Z" fill="#6B7280"/>
<path fill-rule="evenodd" clip-rule="evenodd" d="M0.136955 593.636C0.162832 593.543 0.260669 593.488 0.35548 593.514L652.531 768.293C652.626 768.318 652.682 768.414 652.656 768.507C652.63 768.6 652.532 768.655 652.437 768.63L0.261772 593.851C0.166961 593.826 0.111078 593.73 0.136955 593.636Z" fill="#6B7280"/>
<path fill-rule="evenodd" clip-rule="evenodd" d="M970.195 556.665C970.245 556.748 970.217 556.855 970.132 556.904L603.389 768.609C603.304 768.658 603.195 768.63 603.145 768.547C603.095 768.464 603.124 768.357 603.208 768.308L969.952 556.602C970.037 556.554 970.146 556.581 970.195 556.665Z" fill="#6B7280"/>
<path fill-rule="evenodd" clip-rule="evenodd" d="M898.65 111.665C898.683 111.756 898.635 111.856 898.542 111.889L0.36873 428.34C0.276225 428.373 0.174328 428.326 0.141136 428.235C0.107944 428.144 0.156026 428.044 0.24853 428.011L898.422 111.56C898.515 111.527 898.617 111.574 898.65 111.665Z" fill="#6B7280"/>
<path fill-rule="evenodd" clip-rule="evenodd" d="M326.562 496.247C326.564 496.343 326.486 496.423 326.388 496.425L0.312168 502.879C0.213909 502.881 0.132649 502.804 0.130668 502.707C0.128688 502.611 0.206737 502.531 0.304996 502.529L326.381 496.076C326.479 496.074 326.56 496.15 326.562 496.247Z" fill="#6B7280"/>
<path fill-rule="evenodd" clip-rule="evenodd" d="M270.781 496.247C270.783 496.151 270.864 496.074 270.962 496.076L970.046 508.074C970.144 508.076 970.222 508.155 970.221 508.252C970.219 508.348 970.138 508.425 970.039 508.423L270.956 496.425C270.858 496.424 270.78 496.344 270.781 496.247Z" fill="#6B7280"/>
<path fill-rule="evenodd" clip-rule="evenodd" d="M970.215 529.244C970.239 529.337 970.181 529.432 970.086 529.456L287.517 699.039C287.421 699.063 287.325 699.006 287.3 698.913C287.276 698.819 287.334 698.724 287.429 698.7L969.999 529.117C970.094 529.093 970.191 529.15 970.215 529.244Z" fill="#6B7280"/>
<path fill-rule="evenodd" clip-rule="evenodd" d="M20.2865 373.922V660.99L10.7009 656.259V377.432L20.2865 373.922ZM11.3178 377.853V655.886L19.6696 660.008V374.794L11.3178 377.853Z" fill="#6B7280"/>
<path fill-rule="evenodd" clip-rule="evenodd" d="M19.6764 374.295C19.7116 374.131 19.8752 374.027 20.0419 374.061L30.062 376.139V657.859L20.0664 660.789C19.9032 660.837 19.7313 660.746 19.6826 660.586C19.6339 660.425 19.7267 660.257 19.8899 660.209L29.4451 657.408V376.63L19.9144 374.654C19.7478 374.619 19.6412 374.459 19.6764 374.295Z" fill="#6B7280"/>
<path fill-rule="evenodd" clip-rule="evenodd" d="M308.708 279.184L329.374 284.827V683.17L308.708 688.309V279.184ZM309.325 279.981V687.531L328.758 682.698V285.288L309.325 279.981Z" fill="#6B7280"/>
<path fill-rule="evenodd" clip-rule="evenodd" d="M309.326 279.173V688.331L289.443 682.296V285.184L309.326 279.173ZM290.059 285.631V681.849L308.709 687.51V279.993L290.059 285.631Z" fill="#6B7280"/>
<path fill-rule="evenodd" clip-rule="evenodd" d="M417.946 417.021V700.316L402.761 696.261V418.964L417.946 417.021ZM403.378 419.496V695.798L417.329 699.524V417.711L403.378 419.496Z" fill="#6B7280"/>
<path fill-rule="evenodd" clip-rule="evenodd" d="M417.333 417.32C417.359 417.155 417.517 417.042 417.685 417.068L432.728 419.367V694.891L417.742 700.205C417.582 700.262 417.405 700.181 417.347 700.023C417.29 699.866 417.373 699.692 417.533 699.635L432.111 694.466V419.886L417.59 417.666C417.422 417.64 417.307 417.485 417.333 417.32Z" fill="#6B7280"/>
<path fill-rule="evenodd" clip-rule="evenodd" d="M619.196 389.111V754.249L597.96 748.563V391.751L619.196 389.111ZM598.577 392.285V748.1L618.579 753.456V389.799L598.577 392.285Z" fill="#6B7280"/>
<path fill-rule="evenodd" clip-rule="evenodd" d="M618.579 389.083L637.916 393.029V743.216L618.579 754.382V389.083ZM619.196 389.827V753.323L637.299 742.87V393.522L619.196 389.827Z" fill="#6B7280"/>
<path fill-rule="evenodd" clip-rule="evenodd" d="M855.977 118.63L868.362 140.319V681.212L855.977 692.65V118.63ZM857.187 123.178V689.902L867.152 680.699V140.629L857.187 123.178Z" fill="#6B7280"/>
<path fill-rule="evenodd" clip-rule="evenodd" d="M857.186 120.061V691.958L838.489 689.442V126.637L857.186 120.061ZM839.7 127.474V688.406L855.976 690.596V121.749L839.7 127.474Z" fill="#6B7280"/>
<path fill-rule="evenodd" clip-rule="evenodd" d="M945.96 276.815L953.268 289.64V602.41L945.96 609.179V276.815ZM946.577 279.138V607.775L952.651 602.149V289.798L946.577 279.138Z" fill="#6B7280"/>
<path fill-rule="evenodd" clip-rule="evenodd" d="M946.561 277.88C946.616 278.039 946.529 278.211 946.368 278.264L936.066 281.689V608.174H946.269C946.439 608.174 946.577 608.31 946.577 608.477C946.577 608.645 946.439 608.78 946.269 608.78H935.449V281.255L946.17 277.69C946.331 277.637 946.506 277.722 946.561 277.88Z" fill="#6B7280"/>
<path fill-rule="evenodd" clip-rule="evenodd" d="M551.717 227.992V651.054L536.01 648.265V233.521L551.717 227.992ZM536.627 233.947V647.759L551.101 650.329V228.852L536.627 233.947Z" fill="#6B7280"/>
<path fill-rule="evenodd" clip-rule="evenodd" d="M551.101 227.916L567.116 236.349V643.802L551.101 651.168V227.916ZM551.718 228.928V650.215L566.499 643.417V236.711L551.718 228.928Z" fill="#6B7280"/>
<path fill-rule="evenodd" clip-rule="evenodd" d="M0.00295866 575.537C0.0261851 575.371 0.181821 575.256 0.35058 575.278L871.286 692.978C871.455 693.001 871.573 693.154 871.55 693.319C871.526 693.485 871.371 693.601 871.202 693.578L0.26647 575.879C0.0977102 575.856 -0.0202678 575.703 0.00295866 575.537Z" fill="#6B7280"/>
<path fill-rule="evenodd" clip-rule="evenodd" d="M791.381 423.643C791.715 423.643 791.986 423.909 791.986 424.237V653.765L935.82 668.364C936.152 668.398 936.394 668.69 936.359 669.016C936.325 669.343 936.028 669.58 935.695 669.546L790.776 654.837V424.237C790.776 423.909 791.047 423.643 791.381 423.643Z" fill="#6B7280"/>
<path fill-rule="evenodd" clip-rule="evenodd" d="M773.875 184.203C773.981 184.514 773.809 184.85 773.492 184.954L611.937 237.63C611.619 237.733 611.277 237.564 611.172 237.253C611.066 236.942 611.238 236.605 611.555 236.502L773.11 183.826C773.427 183.723 773.77 183.891 773.875 184.203Z" fill="#6B7280"/>
<path fill-rule="evenodd" clip-rule="evenodd" d="M621.925 225.685C622.259 225.685 622.53 225.951 622.53 226.279V389.455C622.53 389.783 622.259 390.049 621.925 390.049C621.59 390.049 621.32 389.783 621.32 389.455V226.279C621.32 225.951 621.59 225.685 621.925 225.685Z" fill="#6B7280"/>
<path fill-rule="evenodd" clip-rule="evenodd" d="M766.073 213.942C766.172 214.255 765.994 214.588 765.675 214.685L654.917 248.533L621.683 234.303C621.377 234.172 621.237 233.821 621.37 233.521C621.504 233.22 621.86 233.082 622.167 233.214L654.988 247.267L765.315 213.551C765.634 213.453 765.973 213.628 766.073 213.942Z" fill="#6B7280"/>
<path fill-rule="evenodd" clip-rule="evenodd" d="M654.952 247.305C655.286 247.305 655.557 247.571 655.557 247.899V394.907C655.557 395.235 655.286 395.501 654.952 395.501C654.618 395.501 654.347 395.235 654.347 394.907V247.899C654.347 247.571 654.618 247.305 654.952 247.305Z" fill="#6B7280"/>
<path fill-rule="evenodd" clip-rule="evenodd" d="M766.073 226.105C766.171 226.419 765.991 226.751 765.672 226.847L667.254 256.446V399.124C667.254 399.452 666.983 399.718 666.649 399.718C666.315 399.718 666.044 399.452 666.044 399.124V255.567L765.317 225.711C765.637 225.615 765.975 225.791 766.073 226.105Z" fill="#6B7280"/>
<path fill-rule="evenodd" clip-rule="evenodd" d="M766.073 233.539C766.171 233.853 765.99 234.185 765.67 234.28L674.829 261.381L666.344 256.521C666.056 256.355 665.958 255.992 666.127 255.708C666.295 255.425 666.665 255.329 666.954 255.494L674.983 260.093L765.319 233.143C765.638 233.048 765.976 233.225 766.073 233.539Z" fill="#6B7280"/>
<path fill-rule="evenodd" clip-rule="evenodd" d="M674.906 260.141C675.24 260.141 675.511 260.407 675.511 260.735V400.847C675.511 401.175 675.24 401.441 674.906 401.441C674.572 401.441 674.301 401.175 674.301 400.847V260.735C674.301 260.407 674.572 260.141 674.906 260.141Z" fill="#6B7280"/>
<path fill-rule="evenodd" clip-rule="evenodd" d="M727.01 237.262C727.344 237.262 727.615 237.528 727.615 237.856V411.377C727.615 411.705 727.344 411.971 727.01 411.971C726.676 411.971 726.405 411.705 726.405 411.377V237.856C726.405 237.528 726.676 237.262 727.01 237.262Z" fill="#6B7280"/>
<path fill-rule="evenodd" clip-rule="evenodd" d="M734.311 235.031C734.531 234.937 734.787 234.978 734.964 235.137L741.109 240.658C741.234 240.771 741.306 240.93 741.306 241.097V414.151C741.306 414.48 741.035 414.746 740.701 414.746C740.366 414.746 740.096 414.48 740.096 414.151V241.358L735.16 236.924V412.917C735.16 413.245 734.889 413.511 734.555 413.511C734.221 413.511 733.95 413.245 733.95 412.917V235.575C733.95 235.34 734.092 235.126 734.311 235.031Z" fill="#6B7280"/>
<path fill-rule="evenodd" clip-rule="evenodd" d="M882.289 236.794L926.397 293.758V411.811L882.289 389.82V236.794ZM883.499 240.32V389.091L925.187 409.875V294.159L883.499 240.32Z" fill="#6B7280"/>
<path fill-rule="evenodd" clip-rule="evenodd" d="M882.476 262.008C882.717 261.781 883.1 261.789 883.331 262.026L913.879 293.364H925.792C926.126 293.364 926.397 293.63 926.397 293.958C926.397 294.286 926.126 294.552 925.792 294.552H913.362L882.457 262.847C882.226 262.61 882.234 262.234 882.476 262.008Z" fill="#6B7280"/>
<path fill-rule="evenodd" clip-rule="evenodd" d="M913.621 293.363C913.955 293.363 914.226 293.629 914.226 293.957V404.411C914.226 404.74 913.955 405.006 913.621 405.006C913.287 405.006 913.016 404.74 913.016 404.411V293.957C913.016 293.629 913.287 293.363 913.621 293.363Z" fill="#6B7280"/>
<path fill-rule="evenodd" clip-rule="evenodd" d="M882.477 268.762C882.719 268.536 883.102 268.546 883.333 268.784L910.097 296.423V402.712C910.097 403.04 909.826 403.306 909.492 403.306C909.158 403.306 908.887 403.04 908.887 402.712V296.898L882.456 269.602C882.225 269.364 882.235 268.988 882.477 268.762Z" fill="#6B7280"/>
<path fill-rule="evenodd" clip-rule="evenodd" d="M882.458 274.303C882.689 274.066 883.072 274.058 883.313 274.285L906.413 296.066H909.492C909.826 296.066 910.097 296.332 910.097 296.66C910.097 296.988 909.826 297.254 909.492 297.254H905.927L882.475 275.142C882.234 274.915 882.226 274.539 882.458 274.303Z" fill="#6B7280"/>
<path fill-rule="evenodd" clip-rule="evenodd" d="M906.17 296.066C906.504 296.066 906.775 296.332 906.775 296.66V401.056C906.775 401.384 906.504 401.65 906.17 401.65C905.836 401.65 905.565 401.384 905.565 401.056V296.66C905.565 296.332 905.836 296.066 906.17 296.066Z" fill="#6B7280"/>
<path fill-rule="evenodd" clip-rule="evenodd" d="M579.584 438.908V743.951C579.584 744.279 579.313 744.545 578.979 744.545C578.645 744.545 578.374 744.279 578.374 743.951V440.227L479.102 450.394V693.68L443.251 707.833V452.871L579.584 438.908ZM477.892 450.518L444.461 453.941V706.075L477.892 692.877V450.518Z" fill="#6B7280"/>
<path fill-rule="evenodd" clip-rule="evenodd" d="M477.91 693.131C477.994 692.813 478.324 692.622 478.647 692.704L579.13 718.145C579.453 718.227 579.648 718.551 579.565 718.869C579.481 719.187 579.151 719.378 578.828 719.296L478.345 693.855C478.022 693.773 477.827 693.449 477.91 693.131Z" fill="#6B7280"/>
<path fill-rule="evenodd" clip-rule="evenodd" d="M524.324 473.496V539.245H489.161V476.295L524.324 473.496ZM490.371 477.391V538.057H523.114V474.784L490.371 477.391Z" fill="#6B7280"/>
<path fill-rule="evenodd" clip-rule="evenodd" d="M573.392 470.331V539.247H530.446V473.592L573.392 470.331ZM531.656 474.692V538.059H572.182V471.615L531.656 474.692Z" fill="#6B7280"/>
<path fill-rule="evenodd" clip-rule="evenodd" d="M489.161 546.049H524.324V606.734L489.161 604.418V546.049ZM490.371 547.238V603.307L523.114 605.464V547.238H490.371Z" fill="#6B7280"/>
<path fill-rule="evenodd" clip-rule="evenodd" d="M530.446 546.036L573.392 546.971V609.105L530.446 606.659V546.036ZM531.656 547.251V605.538L572.182 607.845V548.133L531.656 547.251Z" fill="#6B7280"/>
<path fill-rule="evenodd" clip-rule="evenodd" d="M658.19 438.894L777.346 453.558V499.93L658.19 497.883V438.894ZM659.4 440.241V496.715L776.136 498.721V454.606L659.4 440.241Z" fill="#6B7280"/>
<path fill-rule="evenodd" clip-rule="evenodd" d="M763.502 451.858C763.836 451.858 764.107 452.124 764.107 452.452V499.094C764.107 499.422 763.836 499.688 763.502 499.688C763.168 499.688 762.897 499.422 762.897 499.094V452.452C762.897 452.124 763.168 451.858 763.502 451.858Z" fill="#6B7280"/>
<path fill-rule="evenodd" clip-rule="evenodd" d="M713.675 445.73C714.01 445.73 714.28 445.996 714.28 446.324V498.255C714.28 498.583 714.01 498.849 713.675 498.849C713.341 498.849 713.07 498.583 713.07 498.255V446.324C713.07 445.996 713.341 445.73 713.675 445.73Z" fill="#6B7280"/>
<path fill-rule="evenodd" clip-rule="evenodd" d="M723.332 446.919C723.666 446.919 723.937 447.185 723.937 447.513V498.255C723.937 498.583 723.666 498.849 723.332 498.849C722.998 498.849 722.727 498.583 722.727 498.255V447.513C722.727 447.185 722.998 446.919 723.332 446.919Z" fill="#6B7280"/>
<path fill-rule="evenodd" clip-rule="evenodd" d="M706.748 445.73C707.082 445.73 707.353 445.996 707.353 446.324V498.161C707.353 498.489 707.082 498.755 706.748 498.755C706.414 498.755 706.143 498.489 706.143 498.161V446.324C706.143 445.996 706.414 445.73 706.748 445.73Z" fill="#6B7280"/>
<path fill-rule="evenodd" clip-rule="evenodd" d="M882.289 466.235L926.397 472.367V502.493L882.289 501.727V466.235ZM883.499 467.603V500.559L925.187 501.284V473.399L883.499 467.603Z" fill="#6B7280"/>
<path fill-rule="evenodd" clip-rule="evenodd" d="M919.196 471.381C919.53 471.381 919.801 471.647 919.801 471.975V501.773C919.801 502.101 919.53 502.367 919.196 502.367C918.862 502.367 918.591 502.101 918.591 501.773V471.975C918.591 471.647 918.862 471.381 919.196 471.381Z" fill="#6B7280"/>
<path fill-rule="evenodd" clip-rule="evenodd" d="M904.343 469.308C904.677 469.308 904.948 469.574 904.948 469.902V501.517C904.948 501.845 904.677 502.111 904.343 502.111C904.009 502.111 903.738 501.845 903.738 501.517V469.902C903.738 469.574 904.009 469.308 904.343 469.308Z" fill="#6B7280"/>
<path fill-rule="evenodd" clip-rule="evenodd" d="M898.483 468.842C898.817 468.842 899.088 469.108 899.088 469.436V501.424C899.088 501.752 898.817 502.018 898.483 502.018C898.149 502.018 897.878 501.752 897.878 501.424V469.436C897.878 469.108 898.149 468.842 898.483 468.842Z" fill="#6B7280"/>
<path fill-rule="evenodd" clip-rule="evenodd" d="M894.829 467.979C895.164 467.979 895.434 468.245 895.434 468.573V501.353C895.434 501.681 895.164 501.947 894.829 501.947C894.495 501.947 894.224 501.681 894.224 501.353V468.573C894.224 468.245 894.495 467.979 894.829 467.979Z" fill="#6B7280"/>
<path fill-rule="evenodd" clip-rule="evenodd" d="M11.0094 369.781C11.6842 369.781 12.2313 370.319 12.2313 370.981V626.193L584.676 874.239L853.501 661.814L791.653 655.538L617.665 755.951V390.827L343.337 426.897V679.698C343.337 680.361 342.79 680.898 342.115 680.898C341.44 680.898 340.893 680.361 340.893 679.698V424.797L620.109 388.085V751.757L791.107 653.07L859.661 660.026L585.05 877.023L9.78745 627.757V370.981C9.78745 370.319 10.3345 369.781 11.0094 369.781Z" fill="#6B7280"/>
<path fill-rule="evenodd" clip-rule="evenodd" d="M856.581 104.932C857.256 104.932 857.803 105.469 857.803 106.132V437.657C857.803 438.32 857.256 438.857 856.581 438.857C855.906 438.857 855.359 438.32 855.359 437.657V106.132C855.359 105.469 855.906 104.932 856.581 104.932Z" fill="#6B7280"/>
<path fill-rule="evenodd" clip-rule="evenodd" d="M290.415 273.305C291.09 273.305 291.637 273.842 291.637 274.505V490.182H310.239V686.38L342.127 678.456L444.177 705.797C444.828 705.972 445.212 706.631 445.034 707.271C444.857 707.91 444.185 708.287 443.534 708.112L342.104 680.937L307.795 689.462V492.582H289.193V274.505C289.193 273.842 289.74 273.305 290.415 273.305Z" fill="#6B7280"/>
<path fill-rule="evenodd" clip-rule="evenodd" d="M100.767 493.899L102.123 623.688L309.379 686.776C310.023 686.972 310.384 687.644 310.184 688.277C309.984 688.91 309.3 689.264 308.655 689.068L100.81 625.801L28.5317 635.811V495.948L100.767 493.899ZM99.6771 623.534L98.3485 496.368L30.9756 498.28V633.049L99.6771 623.534Z" fill="#6B7280"/>
<path fill-rule="evenodd" clip-rule="evenodd" d="M11.0094 625.775C11.6842 625.775 12.2313 626.312 12.2313 626.975V655.337L583.451 940.352V875.63C583.451 874.968 583.999 874.43 584.673 874.43C585.348 874.43 585.895 874.968 585.895 875.63V944.264L9.78745 656.81V626.975C9.78745 626.312 10.3345 625.775 11.0094 625.775Z" fill="#6B7280"/>
<path fill-rule="evenodd" clip-rule="evenodd" d="M187.63 890.167C184.606 892.857 183.016 895.74 183.016 898.696C183.016 901.651 184.606 904.534 187.63 907.224C190.654 909.914 195.063 912.364 200.564 914.434C211.561 918.571 226.794 921.143 243.65 921.143C260.505 921.143 275.738 918.571 286.735 914.434C292.236 912.364 296.645 909.914 299.669 907.224C302.693 904.534 304.283 901.651 304.283 898.696C304.283 895.74 302.693 892.857 299.669 890.167C296.645 887.477 292.236 885.027 286.735 882.958C275.738 878.82 260.505 876.249 243.65 876.249C226.794 876.249 211.561 878.82 200.564 882.958C195.063 885.027 190.654 887.477 187.63 890.167ZM200.131 881.848C211.298 877.647 226.684 875.06 243.65 875.06C260.615 875.06 276.001 877.647 287.168 881.848C292.75 883.948 297.308 886.464 300.482 889.287C303.656 892.11 305.493 895.289 305.493 898.696C305.493 902.103 303.656 905.282 300.482 908.105C297.308 910.928 292.75 913.443 287.168 915.543C276.001 919.745 260.615 922.331 243.65 922.331C226.684 922.331 211.298 919.745 200.131 915.543C194.549 913.443 189.991 910.928 186.817 908.105C183.643 905.282 181.806 902.103 181.806 898.696C181.806 895.289 183.643 892.11 186.817 889.287C189.991 886.464 194.549 883.948 200.131 881.848Z" fill="#6B7280"/>
<path fill-rule="evenodd" clip-rule="evenodd" d="M141.568 824.142C140.093 825.455 139.359 826.826 139.359 828.196C139.359 829.567 140.093 830.938 141.568 832.251C143.043 833.565 145.211 834.774 147.942 835.802C153.4 837.855 160.981 839.135 169.385 839.135C177.789 839.135 185.37 837.849 190.828 835.793C193.559 834.764 195.728 833.554 197.203 832.241C198.678 830.929 199.411 829.561 199.411 828.196C199.411 826.826 198.678 825.455 197.203 824.142C195.728 822.828 193.559 821.619 190.828 820.591C185.371 818.538 177.789 817.258 169.385 817.258C160.981 817.258 153.4 818.538 147.942 820.591C145.211 821.619 143.043 822.828 141.568 824.142ZM147.509 819.482C153.138 817.365 160.872 816.07 169.385 816.07C177.898 816.07 185.633 817.365 191.261 819.482C194.073 820.54 196.391 821.814 198.016 823.261C199.641 824.709 200.622 826.375 200.622 828.196C200.622 830.012 199.64 831.676 198.016 833.122C196.391 834.568 194.074 835.843 191.262 836.902C185.633 839.023 177.899 840.323 169.385 840.323C160.872 840.323 153.138 839.028 147.509 836.911C144.697 835.853 142.38 834.579 140.755 833.132C139.13 831.684 138.149 830.018 138.149 828.196C138.149 826.375 139.13 824.709 140.755 823.261C142.38 821.814 144.697 820.54 147.509 819.482Z" fill="#6B7280"/>
<path fill-rule="evenodd" clip-rule="evenodd" d="M855.077 768.606C853.601 769.919 852.868 771.288 852.868 772.655C852.868 774.022 853.601 775.391 855.077 776.704C856.552 778.017 858.72 779.227 861.451 780.255C866.909 782.31 874.49 783.593 882.894 783.593C891.298 783.593 898.879 782.31 904.337 780.255C907.068 779.227 909.237 778.017 910.712 776.704C912.187 775.391 912.92 774.022 912.92 772.655C912.92 771.288 912.187 769.919 910.712 768.606C909.237 767.293 907.068 766.083 904.337 765.055C898.879 763 891.298 761.717 882.894 761.717C874.49 761.717 866.909 763 861.451 765.055C858.72 766.083 856.552 767.293 855.077 768.606ZM861.018 763.946C866.646 761.827 874.381 760.529 882.894 760.529C891.407 760.529 899.142 761.827 904.77 763.946C907.582 765.004 909.9 766.28 911.525 767.726C913.149 769.172 914.13 770.837 914.13 772.655C914.13 774.473 913.149 776.138 911.525 777.584C909.9 779.03 907.582 780.306 904.77 781.364C899.142 783.483 891.407 784.781 882.894 784.781C874.381 784.781 866.646 783.483 861.018 781.364C858.206 780.306 855.889 779.03 854.264 777.584C852.639 776.138 851.658 774.473 851.658 772.655C851.658 770.837 852.639 769.172 854.264 767.726C855.889 766.28 858.206 765.004 861.018 763.946Z" fill="#6B7280"/>
<path fill-rule="evenodd" clip-rule="evenodd" d="M799.865 824.142C798.39 825.455 797.656 826.826 797.656 828.196C797.656 829.567 798.39 830.938 799.865 832.251C801.34 833.565 803.508 834.774 806.239 835.802C811.697 837.855 819.278 839.135 827.682 839.135C836.086 839.135 843.667 837.849 849.125 835.793C851.856 834.764 854.025 833.554 855.5 832.241C856.975 830.929 857.708 829.561 857.708 828.196C857.708 826.826 856.975 825.455 855.5 824.142C854.025 822.828 851.856 821.619 849.125 820.591C843.667 818.538 836.086 817.258 827.682 817.258C819.278 817.258 811.697 818.538 806.239 820.591C803.508 821.619 801.34 822.828 799.865 824.142ZM805.806 819.482C811.435 817.365 819.169 816.07 827.682 816.07C836.195 816.07 843.93 817.365 849.558 819.482C852.37 820.54 854.688 821.814 856.313 823.261C857.938 824.709 858.918 826.375 858.918 828.196C858.918 830.012 857.937 831.676 856.312 833.122C854.688 834.568 852.37 835.843 849.558 836.902C843.93 839.023 836.195 840.323 827.682 840.323C819.169 840.323 811.435 839.028 805.806 836.911C802.994 835.853 800.677 834.579 799.052 833.132C797.426 831.684 796.446 830.018 796.446 828.196C796.446 826.375 797.426 824.709 799.052 823.261C800.677 821.814 802.994 820.54 805.806 819.482Z" fill="#6B7280"/>
<path fill-rule="evenodd" clip-rule="evenodd" d="M735.684 894.645C734.208 895.958 733.475 897.327 733.475 898.694C733.475 900.061 734.208 901.43 735.684 902.743C737.159 904.056 739.327 905.266 742.058 906.294C747.516 908.349 755.097 909.632 763.501 909.632C771.905 909.632 779.486 908.349 784.944 906.294C787.675 905.266 789.844 904.056 791.319 902.743C792.794 901.43 793.527 900.061 793.527 898.694C793.527 897.327 792.794 895.958 791.319 894.645C789.844 893.332 787.675 892.122 784.944 891.094C779.486 889.039 771.905 887.756 763.501 887.756C755.097 887.756 747.516 889.039 742.058 891.094C739.327 892.122 737.159 893.332 735.684 894.645ZM741.625 889.985C747.254 887.866 754.988 886.568 763.501 886.568C772.014 886.568 779.749 887.866 785.377 889.985C788.19 891.043 790.507 892.319 792.132 893.765C793.757 895.211 794.737 896.876 794.737 898.694C794.737 900.512 793.757 902.177 792.132 903.623C790.507 905.069 788.19 906.345 785.377 907.403C779.749 909.522 772.014 910.821 763.501 910.821C754.988 910.821 747.254 909.522 741.625 907.403C738.813 906.345 736.496 905.069 734.871 903.623C733.246 902.177 732.265 900.512 732.265 898.694C732.265 896.876 733.246 895.211 734.871 893.765C736.496 892.319 738.813 891.043 741.625 889.985Z" fill="#6B7280"/>
<path fill-rule="evenodd" clip-rule="evenodd" d="M857.141 119.432L954.181 289.406V602.799L585.51 943.183C585.019 943.637 584.245 943.613 583.783 943.131C583.321 942.648 583.345 941.889 583.836 941.435L951.737 601.761V290.033L856.021 122.377L537.54 234.579V343.252L290.472 275.767L11.4393 378.767C10.8076 379.001 10.1031 378.687 9.86558 378.067C9.62811 377.446 9.94768 376.754 10.5794 376.521L290.358 273.245L535.096 340.094V232.891L857.141 119.432Z" fill="#6B7280"/>
<path fill-rule="evenodd" clip-rule="evenodd" d="M536.319 340.472C536.993 340.472 537.54 341.009 537.54 341.671V400.242C537.54 400.904 536.993 401.441 536.319 401.441C535.644 401.441 535.097 400.904 535.097 400.242V341.671C535.097 341.009 535.644 340.472 536.319 340.472Z" fill="#6B7280"/>
<path fill-rule="evenodd" clip-rule="evenodd" d="M856.581 436.458C857.256 436.458 857.803 436.995 857.803 437.658V660.919C857.803 661.582 857.256 662.119 856.581 662.119C855.906 662.119 855.359 661.582 855.359 660.919V437.658C855.359 436.995 855.906 436.458 856.581 436.458Z" fill="#6B7280"/>
<path fill-rule="evenodd" clip-rule="evenodd" d="M617.691 389.212C617.827 388.563 618.474 388.146 619.135 388.28L791.626 423.26L792.603 654.297C792.605 654.96 792.061 655.499 791.386 655.502C790.711 655.505 790.161 654.97 790.159 654.307L789.19 425.217L618.64 390.63C617.979 390.496 617.554 389.861 617.691 389.212Z" fill="#6B7280"/>
<path fill-rule="evenodd" clip-rule="evenodd" d="M343.741 325.459L517.444 369.331V423.306L343.741 389.944V325.459ZM344.951 326.992V388.966L516.234 421.863V370.253L344.951 326.992Z" fill="#6B7280"/>
<path fill-rule="evenodd" clip-rule="evenodd" d="M517.426 369.648C517.507 369.966 517.31 370.289 516.986 370.369L503.523 373.679L504.228 420.036C504.233 420.365 503.966 420.634 503.632 420.639C503.298 420.644 503.023 420.382 503.018 420.054L502.299 372.755L516.692 369.216C517.016 369.136 517.344 369.33 517.426 369.648Z" fill="#6B7280"/>
<path fill-rule="evenodd" clip-rule="evenodd" d="M343.758 334.353C343.839 334.034 344.167 333.841 344.491 333.92L503.057 372.64C503.381 372.72 503.579 373.042 503.498 373.36C503.417 373.679 503.089 373.873 502.765 373.793L344.199 335.073C343.875 334.994 343.678 334.671 343.758 334.353Z" fill="#6B7280"/>
<path fill-rule="evenodd" clip-rule="evenodd" d="M343.758 338.872C343.838 338.554 344.166 338.359 344.49 338.437L498.747 375.708V418.995C498.747 419.323 498.476 419.589 498.142 419.589C497.808 419.589 497.537 419.323 497.537 418.995V376.639L344.201 339.591C343.876 339.513 343.678 339.191 343.758 338.872Z" fill="#6B7280"/>
<path fill-rule="evenodd" clip-rule="evenodd" d="M493.741 375.581H498.142C498.477 375.581 498.747 375.847 498.747 376.175C498.747 376.503 498.477 376.769 498.142 376.769H494.951V418.274C494.951 418.602 494.68 418.868 494.346 418.868C494.012 418.868 493.741 418.602 493.741 418.274V375.581Z" fill="#6B7280"/>
<path fill-rule="evenodd" clip-rule="evenodd" d="M462.315 366.915C462.649 366.915 462.92 367.18 462.92 367.509V412.1C462.92 412.428 462.649 412.694 462.315 412.694C461.981 412.694 461.71 412.428 461.71 412.1V367.509C461.71 367.18 461.981 366.915 462.315 366.915Z" fill="#6B7280"/>
<path fill-rule="evenodd" clip-rule="evenodd" d="M456.977 365.634C457.311 365.634 457.582 365.9 457.582 366.228V410.68C457.582 411.008 457.311 411.274 456.977 411.274C456.643 411.274 456.372 411.008 456.372 410.68V366.228C456.372 365.9 456.643 365.634 456.977 365.634Z" fill="#6B7280"/>
<path fill-rule="evenodd" clip-rule="evenodd" d="M453.299 365.634C453.633 365.634 453.904 365.9 453.904 366.228V410.54C453.904 410.868 453.633 411.134 453.299 411.134C452.965 411.134 452.694 410.868 452.694 410.54V366.228C452.694 365.9 452.965 365.634 453.299 365.634Z" fill="#6B7280"/>
<path fill-rule="evenodd" clip-rule="evenodd" d="M403.069 353.261C403.403 353.261 403.674 353.527 403.674 353.855V400.73C403.674 401.058 403.403 401.324 403.069 401.324C402.735 401.324 402.464 401.058 402.464 400.73V353.855C402.464 353.527 402.735 353.261 403.069 353.261Z" fill="#6B7280"/>
<path fill-rule="evenodd" clip-rule="evenodd" d="M395.714 350.815C396.048 350.815 396.319 351.081 396.319 351.409V399.309C396.319 399.637 396.048 399.903 395.714 399.903C395.38 399.903 395.109 399.637 395.109 399.309V351.409C395.109 351.081 395.38 350.815 395.714 350.815Z" fill="#6B7280"/>
<path fill-rule="evenodd" clip-rule="evenodd" d="M391.396 349.767C391.73 349.767 392.001 350.033 392.001 350.361V398.307C392.001 398.635 391.73 398.901 391.396 398.901C391.062 398.901 390.791 398.635 390.791 398.307V350.361C390.791 350.033 391.062 349.767 391.396 349.767Z" fill="#6B7280"/>
<path fill-rule="evenodd" clip-rule="evenodd" d="M291.637 491.359C291.65 492.021 291.114 492.569 290.44 492.582L99.5821 496.333C98.9073 496.346 98.3494 495.82 98.3359 495.158C98.3224 494.495 98.8584 493.947 99.5332 493.934L290.391 490.183C291.065 490.17 291.623 490.696 291.637 491.359Z" fill="#6B7280"/>
<path fill-rule="evenodd" clip-rule="evenodd" d="M239.759 337.629C240.093 337.629 240.364 337.895 240.364 338.223V439.358C240.364 439.687 240.093 439.953 239.759 439.953C239.425 439.953 239.154 439.687 239.154 439.358V338.223C239.154 337.895 239.425 337.629 239.759 337.629Z" fill="#6B7280"/>
<path fill-rule="evenodd" clip-rule="evenodd" d="M163.359 364.539C163.693 364.539 163.964 364.805 163.964 365.133V449.447C163.964 449.775 163.693 450.041 163.359 450.041C163.025 450.041 162.754 449.775 162.754 449.447V365.133C162.754 364.805 163.025 364.539 163.359 364.539Z" fill="#6B7280"/>
<path fill-rule="evenodd" clip-rule="evenodd" d="M116.973 380.894C117.307 380.894 117.578 381.16 117.578 381.488V455.574C117.578 455.902 117.307 456.168 116.973 456.168C116.639 456.168 116.368 455.902 116.368 455.574V381.488C116.368 381.16 116.639 380.894 116.973 380.894Z" fill="#6B7280"/>
<path fill-rule="evenodd" clip-rule="evenodd" d="M55.3549 402.583C55.6891 402.583 55.96 402.849 55.96 403.177V465.568C55.96 465.896 55.6891 466.162 55.3549 466.162C55.0208 466.162 54.7499 465.896 54.7499 465.568V403.177C54.7499 402.849 55.0208 402.583 55.3549 402.583Z" fill="#6B7280"/>
<path fill-rule="evenodd" clip-rule="evenodd" d="M54.7558 403.095C54.802 402.77 55.1077 402.543 55.4386 402.588L65.1423 403.918V462.492C65.1423 462.821 64.8714 463.087 64.5372 463.087C64.2031 463.087 63.9322 462.821 63.9322 462.492V404.952L55.2714 403.765C54.9405 403.72 54.7096 403.42 54.7558 403.095Z" fill="#6B7280"/>
<path fill-rule="evenodd" clip-rule="evenodd" d="M117.549 387.689C117.651 388.001 117.476 388.336 117.158 388.436L64.7223 405.001C64.4042 405.101 64.0633 404.93 63.961 404.617C63.8587 404.305 64.0336 403.97 64.3517 403.87L116.788 387.305C117.106 387.205 117.447 387.376 117.549 387.689Z" fill="#6B7280"/>
<path fill-rule="evenodd" clip-rule="evenodd" d="M162.758 365.062C162.798 364.736 163.099 364.504 163.431 364.543L176.373 366.074V447.56C176.373 447.888 176.102 448.154 175.768 448.154C175.434 448.154 175.163 447.888 175.163 447.56V367.128L163.287 365.723C162.955 365.684 162.718 365.388 162.758 365.062Z" fill="#6B7280"/>
<path fill-rule="evenodd" clip-rule="evenodd" d="M240.331 344.787C240.44 345.097 240.272 345.435 239.956 345.542L175.965 367.162C175.649 367.269 175.305 367.104 175.196 366.793C175.087 366.483 175.255 366.145 175.571 366.038L239.562 344.418C239.878 344.311 240.222 344.476 240.331 344.787Z" fill="#6B7280"/>
<path fill-rule="evenodd" clip-rule="evenodd" d="M240.332 348.961C240.439 349.273 240.268 349.609 239.951 349.714L180.264 369.381V447.303C180.264 447.631 179.993 447.897 179.659 447.897C179.325 447.897 179.054 447.631 179.054 447.303V368.526L239.566 348.587C239.883 348.483 240.226 348.65 240.332 348.961Z" fill="#6B7280"/>
<path fill-rule="evenodd" clip-rule="evenodd" d="M213.849 357.084C214.183 357.084 214.454 357.35 214.454 357.678V442.784C214.454 443.113 214.183 443.379 213.849 443.379C213.514 443.379 213.244 443.113 213.244 442.784V357.678C213.244 357.35 213.514 357.084 213.849 357.084Z" fill="#6B7280"/>
<path fill-rule="evenodd" clip-rule="evenodd" d="M218.179 355.111L222.924 357.3V441.665C222.924 441.993 222.654 442.259 222.319 442.259C221.985 442.259 221.714 441.993 221.714 441.665V358.054L219.389 356.982V442.131C219.389 442.459 219.118 442.725 218.784 442.725C218.45 442.725 218.179 442.459 218.179 442.131V355.111Z" fill="#6B7280"/>
<path fill-rule="evenodd" clip-rule="evenodd" d="M179.101 368.723C179.231 368.42 179.586 368.279 179.894 368.407L183.016 369.702V446.931C183.016 447.259 182.745 447.525 182.411 447.525C182.077 447.525 181.806 447.259 181.806 446.931V370.489L179.423 369.501C179.116 369.373 178.971 369.025 179.101 368.723Z" fill="#6B7280"/>
<path fill-rule="evenodd" clip-rule="evenodd" d="M214.425 359.987C214.527 360.3 214.352 360.634 214.034 360.735L182.596 370.66C182.278 370.76 181.937 370.588 181.835 370.276C181.733 369.964 181.908 369.629 182.226 369.528L213.664 359.604C213.982 359.503 214.323 359.675 214.425 359.987Z" fill="#6B7280"/>
<path fill-rule="evenodd" clip-rule="evenodd" d="M240.331 351.661C240.439 351.972 240.27 352.309 239.953 352.415L222.514 358.24C222.198 358.345 221.854 358.179 221.746 357.868C221.639 357.558 221.808 357.22 222.124 357.115L239.564 351.29C239.88 351.185 240.224 351.351 240.331 351.661Z" fill="#6B7280"/>
<path fill-rule="evenodd" clip-rule="evenodd" d="M117.553 391.756C117.648 392.071 117.466 392.402 117.146 392.495L68.369 406.79V462.075C68.369 462.403 68.0981 462.669 67.764 462.669C67.4298 462.669 67.1589 462.403 67.1589 462.075V405.905L116.8 391.357C117.12 391.263 117.457 391.442 117.553 391.756Z" fill="#6B7280"/>
<path fill-rule="evenodd" clip-rule="evenodd" d="M92.3682 398.553C92.7024 398.553 92.9733 398.819 92.9733 399.147V458.836C92.9733 459.164 92.7024 459.43 92.3682 459.43C92.0341 459.43 91.7632 459.164 91.7632 458.836V399.147C91.7632 398.819 92.0341 398.553 92.3682 398.553Z" fill="#6B7280"/>
<path fill-rule="evenodd" clip-rule="evenodd" d="M95.0379 397.274L98.6206 398.752V458.066C98.6206 458.394 98.3498 458.66 98.0156 458.66C97.6815 458.66 97.4106 458.394 97.4106 458.066V399.541L96.248 399.062V458.392C96.248 458.721 95.9771 458.987 95.6429 458.987C95.3088 458.987 95.0379 458.721 95.0379 458.392V397.274Z" fill="#6B7280"/>
<path fill-rule="evenodd" clip-rule="evenodd" d="M67.1956 406.142C67.3103 405.834 67.6577 405.675 67.9715 405.788L70.5754 406.722V461.771C70.5754 462.099 70.3045 462.365 69.9704 462.365C69.6362 462.365 69.3653 462.099 69.3653 461.771V407.553L67.5561 406.904C67.2422 406.791 67.0808 406.45 67.1956 406.142Z" fill="#6B7280"/>
<path fill-rule="evenodd" clip-rule="evenodd" d="M92.949 400.541C93.0428 400.856 92.8588 401.186 92.5381 401.278L70.1401 407.708C69.8194 407.8 69.4834 407.62 69.3896 407.305C69.2958 406.99 69.4798 406.66 69.8006 406.568L92.1985 400.138C92.5193 400.046 92.8553 400.226 92.949 400.541Z" fill="#6B7280"/>
<path fill-rule="evenodd" clip-rule="evenodd" d="M117.553 393.456C117.648 393.771 117.466 394.101 117.145 394.195L98.1877 399.716C97.8673 399.809 97.5306 399.63 97.4356 399.316C97.3405 399.001 97.5232 398.67 97.8436 398.577L116.801 393.056C117.122 392.962 117.458 393.142 117.553 393.456Z" fill="#6B7280"/>
<path fill-rule="evenodd" clip-rule="evenodd" d="M19.9782 296.486C20.0765 296.486 20.1561 296.564 20.1561 296.66V748.797C20.1561 748.894 20.0765 748.972 19.9782 748.972C19.8799 748.972 19.8002 748.894 19.8002 748.797V296.66C19.8002 296.564 19.8799 296.486 19.9782 296.486Z" fill="#6B7280"/>
<path fill-rule="evenodd" clip-rule="evenodd" d="M289.751 211.939C289.849 211.939 289.929 212.017 289.929 212.114V886.51C289.929 886.606 289.849 886.684 289.751 886.684C289.653 886.684 289.573 886.606 289.573 886.51V212.114C289.573 212.017 289.653 211.939 289.751 211.939Z" fill="#6B7280"/>
<path fill-rule="evenodd" clip-rule="evenodd" d="M309.017 219.372C309.115 219.372 309.195 219.45 309.195 219.546V906.104C309.195 906.2 309.115 906.279 309.017 906.279C308.918 906.279 308.839 906.2 308.839 906.104V219.546C308.839 219.45 308.918 219.372 309.017 219.372Z" fill="#6B7280"/>
<path fill-rule="evenodd" clip-rule="evenodd" d="M535.512 205.184C535.61 205.184 535.69 205.262 535.69 205.359V970.825C535.69 970.922 535.61 971 535.512 971C535.414 971 535.334 970.922 535.334 970.825V205.359C535.334 205.262 535.414 205.184 535.512 205.184Z" fill="#6B7280"/>
<path fill-rule="evenodd" clip-rule="evenodd" d="M856.581 70.4276C856.68 70.4276 856.759 70.5059 856.759 70.6024V761.703C856.759 761.799 856.68 761.878 856.581 761.878C856.483 761.878 856.403 761.799 856.403 761.703V70.6024C856.403 70.5059 856.483 70.4276 856.581 70.4276Z" fill="#6B7280"/>
<path fill-rule="evenodd" clip-rule="evenodd" d="M417.638 158.47C417.736 158.47 417.816 158.548 417.816 158.644V733.42C417.816 733.516 417.736 733.595 417.638 733.595C417.539 733.595 417.46 733.516 417.46 733.42V158.644C417.46 158.548 417.539 158.47 417.638 158.47Z" fill="#6B7280"/>
<path fill-rule="evenodd" clip-rule="evenodd" d="M952.96 224.868C953.058 224.868 953.138 224.946 953.138 225.043V670.773C953.138 670.869 953.058 670.948 952.96 670.948C952.861 670.948 952.782 670.869 952.782 670.773V225.043C952.782 224.946 952.861 224.868 952.96 224.868Z" fill="#6B7280"/>
<path fill-rule="evenodd" clip-rule="evenodd" d="M619.552 335.602C619.65 335.602 619.73 335.681 619.73 335.777V781.507C619.73 781.604 619.65 781.682 619.552 781.682C619.454 781.682 619.374 781.604 619.374 781.507V335.777C619.374 335.681 619.454 335.602 619.552 335.602Z" fill="#6B7280"/>
<path fill-rule="evenodd" clip-rule="evenodd" d="M894.994 0.110254C895.03 0.199935 894.986 0.301525 894.894 0.337161L0.374432 349.359C0.283099 349.394 0.179639 349.351 0.143346 349.261C0.107054 349.171 0.151673 349.07 0.243006 349.034L894.763 0.0123968C894.854 -0.0232392 894.958 0.020573 894.994 0.110254Z" fill="#6B7280"/>
<path fill-rule="evenodd" clip-rule="evenodd" d="M807.355 0.0232671C807.44 -0.0248189 807.549 0.00402612 807.598 0.0876942L970.197 277.889C970.246 277.972 970.216 278.079 970.131 278.127C970.046 278.175 969.937 278.146 969.888 278.063L807.289 0.261829C807.24 0.178161 807.27 0.0713531 807.355 0.0232671Z" fill="#6B7280"/>
<path fill-rule="evenodd" clip-rule="evenodd" d="M765.494 179.415C765.829 179.415 766.1 179.681 766.1 180.009V418.623C766.1 418.951 765.829 419.217 765.494 419.217C765.16 419.217 764.889 418.951 764.889 418.623V180.009C764.889 179.681 765.16 179.415 765.494 179.415Z" fill="#6B7280"/>
<path fill-rule="evenodd" clip-rule="evenodd" d="M118.053 507.656H290.356V615.706L118.053 592.102V507.656ZM119.263 508.844V591.069L289.146 614.34V508.844H119.263Z" fill="#6B7280"/>
<path fill-rule="evenodd" clip-rule="evenodd" d="M129.501 507.656C129.835 507.656 130.106 507.922 130.106 508.25V590.391L118.753 592.172C118.423 592.224 118.113 592.003 118.06 591.679C118.007 591.355 118.232 591.051 118.562 590.999L128.896 589.378V508.25C128.896 507.922 129.166 507.656 129.501 507.656Z" fill="#6B7280"/>
<path fill-rule="evenodd" clip-rule="evenodd" d="M128.901 589.807C128.945 589.482 129.249 589.253 129.58 589.295L289.83 610.03C290.161 610.073 290.394 610.372 290.351 610.697C290.307 611.022 290.003 611.251 289.672 611.208L129.422 590.473C129.09 590.431 128.857 590.132 128.901 589.807Z" fill="#6B7280"/>
<path fill-rule="evenodd" clip-rule="evenodd" d="M134.697 507.656C135.031 507.656 135.302 507.922 135.302 508.25V586.118L289.821 603.832C290.153 603.87 290.39 604.165 290.352 604.491C290.313 604.817 290.012 605.051 289.681 605.013L134.092 587.175V508.25C134.092 507.922 134.363 507.656 134.697 507.656Z" fill="#6B7280"/>
<path fill-rule="evenodd" clip-rule="evenodd" d="M204.216 507.656C204.55 507.656 204.821 507.922 204.821 508.25V594.614C204.821 594.942 204.55 595.208 204.216 595.208C203.882 595.208 203.611 594.942 203.611 594.614V508.25C203.611 507.922 203.882 507.656 204.216 507.656Z" fill="#6B7280"/>
<path fill-rule="evenodd" clip-rule="evenodd" d="M217.052 507.656C217.386 507.656 217.657 507.922 217.657 508.25V595.523C217.657 595.851 217.386 596.117 217.052 596.117C216.718 596.117 216.447 595.851 216.447 595.523V508.25C216.447 507.922 216.718 507.656 217.052 507.656Z" fill="#6B7280"/>
<path fill-rule="evenodd" clip-rule="evenodd" d="M212.235 507.656C212.57 507.656 212.84 507.922 212.84 508.25V595.523C212.84 595.851 212.57 596.117 212.235 596.117C211.901 596.117 211.63 595.851 211.63 595.523V508.25C211.63 507.922 211.901 507.656 212.235 507.656Z" fill="#6B7280"/>
<path fill-rule="evenodd" clip-rule="evenodd" d="M138.612 507.656C138.946 507.656 139.217 507.922 139.217 508.25V587.24H134.697C134.363 587.24 134.092 586.974 134.092 586.646C134.092 586.318 134.363 586.052 134.697 586.052H138.007V508.25C138.007 507.922 138.278 507.656 138.612 507.656Z" fill="#6B7280"/>
</svg>
