<svg width="530" height="447" viewBox="0 0 530 447" fill="none" xmlns="http://www.w3.org/2000/svg">
<g clip-path="url(#clip0_3368_166120)">
<path fill-rule="evenodd" clip-rule="evenodd" d="M244.933 96.0483C245.09 96.0483 245.218 96.1757 245.218 96.3329V180.222C245.218 180.379 245.09 180.507 244.933 180.507C244.776 180.507 244.648 180.379 244.648 180.222V96.3329C244.648 96.1757 244.776 96.0483 244.933 96.0483Z" fill="#9CA3AF"/>
<path fill-rule="evenodd" clip-rule="evenodd" d="M335.924 198.504C335.944 198.66 335.834 198.803 335.678 198.823L244.969 210.402C244.948 210.405 244.927 210.405 244.905 210.403L190.209 205.074C190.052 205.059 189.938 204.92 189.953 204.764C189.968 204.607 190.108 204.493 190.264 204.508L244.929 209.833L335.606 198.258C335.762 198.238 335.905 198.348 335.924 198.504Z" fill="#9CA3AF"/>
<path fill-rule="evenodd" clip-rule="evenodd" d="M244.933 209.836C245.09 209.836 245.218 209.963 245.218 210.12V326.868C245.218 327.025 245.09 327.153 244.933 327.153C244.776 327.153 244.648 327.025 244.648 326.868V210.12C244.648 209.963 244.776 209.836 244.933 209.836Z" fill="#9CA3AF"/>
<path fill-rule="evenodd" clip-rule="evenodd" d="M244.65 301.231C244.667 301.075 244.808 300.962 244.964 300.979L259.811 302.63C259.967 302.648 260.08 302.788 260.063 302.945C260.045 303.101 259.904 303.214 259.748 303.196L244.901 301.545C244.745 301.528 244.633 301.387 244.65 301.231Z" fill="#9CA3AF"/>
<path fill-rule="evenodd" clip-rule="evenodd" d="M245.199 110.712C245.255 110.859 245.182 111.024 245.035 111.08L129.46 155.573V301.019L244.978 319.596C245.133 319.621 245.239 319.767 245.214 319.922C245.189 320.077 245.043 320.183 244.888 320.158L129.13 301.542C128.992 301.52 128.891 301.401 128.891 301.261V155.378C128.891 155.26 128.963 155.154 129.073 155.112L244.831 110.549C244.977 110.492 245.142 110.566 245.199 110.712Z" fill="#9CA3AF"/>
<path fill-rule="evenodd" clip-rule="evenodd" d="M335.5 57.0906C335.588 57.0398 335.697 57.0399 335.785 57.0909L465.376 132.111C465.464 132.162 465.518 132.255 465.518 132.357V322.109C465.518 322.239 465.431 322.352 465.306 322.385L335.715 356.541C335.63 356.564 335.539 356.546 335.469 356.492C335.399 356.438 335.358 356.355 335.358 356.266V57.3372C335.358 57.2355 335.412 57.1415 335.5 57.0906ZM335.927 57.8309V355.897L464.949 321.89V132.521L335.927 57.8309Z" fill="#9CA3AF"/>
<path fill-rule="evenodd" clip-rule="evenodd" d="M465.515 293.104C465.537 293.26 465.428 293.404 465.273 293.426L335.682 311.62C335.658 311.623 335.634 311.623 335.611 311.621L317.974 309.663C317.818 309.645 317.705 309.504 317.723 309.348C317.74 309.192 317.881 309.079 318.037 309.097L335.638 311.051L465.193 292.862C465.349 292.84 465.493 292.948 465.515 293.104Z" fill="#9CA3AF"/>
<path fill-rule="evenodd" clip-rule="evenodd" d="M335.528 51.1552C335.612 51.1186 335.708 51.1244 335.786 51.1707L469.374 129.879C469.462 129.931 469.515 130.026 469.514 130.128C469.513 130.23 469.457 130.323 469.368 130.373L465.372 132.605C465.284 132.654 465.177 132.653 465.09 132.603L335.623 57.6544L245.045 96.5937C244.924 96.646 244.782 96.6074 244.703 96.5005L241.789 92.527C241.738 92.4573 241.721 92.3681 241.743 92.2847C241.766 92.2012 241.825 92.1325 241.904 92.0978L335.528 51.1552ZM242.458 92.4769L245.028 95.9813L335.53 57.075C335.612 57.0395 335.707 57.0458 335.785 57.0909L465.235 132.029L468.657 130.118L335.623 51.735L242.458 92.4769Z" fill="#9CA3AF"/>
<path fill-rule="evenodd" clip-rule="evenodd" d="M335.642 51.1313C335.8 51.1313 335.927 51.2588 335.927 51.416V57.3365C335.927 57.4937 335.8 57.6211 335.642 57.6211C335.485 57.6211 335.358 57.4944 335.358 57.3372V51.416C335.358 51.2588 335.485 51.1313 335.642 51.1313Z" fill="#9CA3AF"/>
<path fill-rule="evenodd" clip-rule="evenodd" d="M287.879 171.119C287.921 171.111 287.964 171.112 288.005 171.122L335.71 182.929C335.837 182.96 335.927 183.074 335.927 183.205V198.541C335.927 198.626 335.889 198.706 335.825 198.76C335.76 198.814 335.674 198.836 335.591 198.821L287.739 190.177L190.279 205.073C190.197 205.086 190.114 205.062 190.051 205.008C189.988 204.954 189.952 204.875 189.952 204.792V191.448C189.952 191.313 190.047 191.196 190.179 191.169L287.879 171.119ZM190.521 191.68V204.461L287.7 189.607C287.731 189.602 287.762 189.603 287.793 189.608L335.357 198.201V183.428L287.93 171.69L190.521 191.68Z" fill="#9CA3AF"/>
<path fill-rule="evenodd" clip-rule="evenodd" d="M287.939 171.113C288.097 171.115 288.223 171.244 288.221 171.401L288.027 189.891C288.026 190.048 287.897 190.175 287.74 190.173C287.583 190.171 287.457 190.042 287.458 189.885L287.652 171.395C287.653 171.238 287.782 171.112 287.939 171.113Z" fill="#9CA3AF"/>
<path fill-rule="evenodd" clip-rule="evenodd" d="M128.892 286.309C128.907 286.152 129.046 286.037 129.202 286.052L244.959 296.868C245.116 296.883 245.231 297.022 245.216 297.178C245.202 297.335 245.063 297.45 244.907 297.435L129.149 286.619C128.993 286.604 128.878 286.465 128.892 286.309Z" fill="#9CA3AF"/>
<path fill-rule="evenodd" clip-rule="evenodd" d="M318.201 226.832C318.258 226.886 318.29 226.961 318.29 227.039V335.043C318.29 335.127 318.253 335.207 318.189 335.261C318.124 335.315 318.039 335.338 317.957 335.323L259.731 325.145C259.594 325.121 259.495 325.002 259.495 324.864V230.432C259.495 230.281 259.613 230.157 259.763 230.148L317.989 226.755C318.067 226.75 318.144 226.778 318.201 226.832ZM260.064 230.701V324.625L317.721 334.704V227.341L260.064 230.701Z" fill="#9CA3AF"/>
<path fill-rule="evenodd" clip-rule="evenodd" d="M318.29 228.024C318.3 228.181 318.18 228.316 318.023 228.326L262.49 231.736V324.489C262.49 324.629 262.388 324.748 262.249 324.77L239.764 328.285V336.671C239.764 336.812 239.661 336.932 239.522 336.953L221.615 339.638V348.666L278.144 362.781L317.935 352.597C318.088 352.558 318.243 352.65 318.282 352.803C318.321 352.955 318.229 353.11 318.076 353.149L278.215 363.35C278.17 363.362 278.122 363.362 278.076 363.351L221.262 349.164C221.135 349.133 221.046 349.019 221.046 348.888V339.393C221.046 339.252 221.149 339.132 221.288 339.111L239.195 336.426V328.041C239.195 327.901 239.297 327.782 239.435 327.76L261.92 324.245V231.468C261.92 231.318 262.037 231.194 262.188 231.184L317.988 227.757C318.145 227.748 318.28 227.867 318.29 228.024Z" fill="#9CA3AF"/>
<path fill-rule="evenodd" clip-rule="evenodd" d="M239.199 327.988C239.228 327.834 239.377 327.732 239.532 327.761L298.431 338.863L317.947 334.764C318.031 334.747 318.118 334.768 318.185 334.822C318.252 334.876 318.29 334.957 318.29 335.043L318.29 352.638L335.696 355.986C335.85 356.016 335.951 356.165 335.921 356.319C335.892 356.474 335.742 356.575 335.588 356.545L317.952 353.152C317.818 353.127 317.721 353.009 317.721 352.873V335.394L298.492 339.432C298.456 339.439 298.418 339.44 298.381 339.433L239.426 328.32C239.272 328.291 239.17 328.143 239.199 327.988Z" fill="#9CA3AF"/>
<path fill-rule="evenodd" clip-rule="evenodd" d="M239.2 336.615C239.231 336.461 239.381 336.361 239.535 336.392L298.149 348.13V339.153C298.149 338.996 298.277 338.868 298.434 338.868C298.591 338.868 298.718 338.996 298.718 339.153V348.478C298.718 348.563 298.68 348.644 298.614 348.698C298.548 348.752 298.461 348.774 298.378 348.757L239.423 336.95C239.269 336.919 239.169 336.769 239.2 336.615Z" fill="#9CA3AF"/>
<path fill-rule="evenodd" clip-rule="evenodd" d="M221.053 339.331C221.087 339.177 221.239 339.081 221.392 339.115L278.151 351.752L298.385 348.198C298.539 348.171 298.687 348.274 298.714 348.429C298.741 348.584 298.638 348.731 298.483 348.759L278.194 352.322C278.157 352.329 278.119 352.328 278.083 352.32L221.269 339.67C221.115 339.636 221.018 339.484 221.053 339.331Z" fill="#9CA3AF"/>
<path fill-rule="evenodd" clip-rule="evenodd" d="M278.145 345.427C278.302 345.427 278.429 345.555 278.429 345.712V370.123C278.429 370.28 278.302 370.407 278.145 370.407C277.987 370.407 277.86 370.28 277.86 370.123V345.712C277.86 345.555 277.987 345.427 278.145 345.427Z" fill="#9CA3AF"/>
<path fill-rule="evenodd" clip-rule="evenodd" d="M259.518 230.32C259.58 230.175 259.747 230.108 259.892 230.17L262.317 231.206C262.461 231.268 262.528 231.435 262.467 231.58C262.405 231.724 262.238 231.791 262.093 231.729L259.668 230.693C259.523 230.632 259.456 230.464 259.518 230.32Z" fill="#9CA3AF"/>
<path fill-rule="evenodd" clip-rule="evenodd" d="M310.7 236.125C310.756 236.179 310.787 236.253 310.787 236.33V251.405C310.787 251.562 310.66 251.689 310.503 251.689H268.547C268.39 251.689 268.262 251.562 268.262 251.405V237.981C268.262 237.828 268.383 237.703 268.536 237.697L310.492 236.046C310.569 236.043 310.644 236.071 310.7 236.125ZM268.831 238.255V251.12H310.218V236.626L268.831 238.255Z" fill="#9CA3AF"/>
<path fill-rule="evenodd" clip-rule="evenodd" d="M268.347 259.115C268.401 259.061 268.474 259.031 268.55 259.032L310.506 259.465C310.662 259.466 310.787 259.593 310.787 259.75V272.684C310.787 272.76 310.756 272.834 310.701 272.888C310.646 272.941 310.571 272.97 310.494 272.968L268.538 271.727C268.384 271.723 268.262 271.596 268.262 271.443V259.317C268.262 259.241 268.293 259.168 268.347 259.115ZM268.831 259.604V271.166L310.218 272.39V260.031L268.831 259.604Z" fill="#9CA3AF"/>
<path fill-rule="evenodd" clip-rule="evenodd" d="M240.637 201.071C240.436 201.235 240.39 201.357 240.39 201.432C240.39 201.508 240.436 201.63 240.637 201.794C240.834 201.955 241.143 202.124 241.567 202.292C242.414 202.627 243.656 202.935 245.211 203.195C248.316 203.716 252.618 204.04 257.378 204.04C262.137 204.04 266.439 203.716 269.544 203.195C271.099 202.935 272.341 202.627 273.188 202.292C273.612 202.124 273.921 201.955 274.119 201.794C274.319 201.63 274.365 201.508 274.365 201.432C274.365 201.357 274.319 201.235 274.119 201.071C273.921 200.909 273.612 200.741 273.188 200.573C272.341 200.238 271.099 199.93 269.544 199.669C266.439 199.149 262.137 198.825 257.378 198.825C252.618 198.825 248.316 199.149 245.211 199.669C243.656 199.93 242.414 200.238 241.567 200.573C241.143 200.741 240.834 200.909 240.637 201.071ZM245.117 199.108C248.262 198.581 252.596 198.256 257.378 198.256C262.159 198.256 266.493 198.581 269.638 199.108C271.209 199.371 272.496 199.687 273.397 200.043C273.846 200.221 274.216 200.415 274.479 200.63C274.738 200.842 274.934 201.109 274.934 201.432C274.934 201.755 274.738 202.023 274.479 202.235C274.216 202.449 273.846 202.644 273.397 202.821C272.496 203.178 271.209 203.494 269.638 203.757C266.493 204.284 262.159 204.609 257.378 204.609C252.596 204.609 248.262 204.284 245.117 203.757C243.546 203.494 242.259 203.178 241.358 202.821C240.909 202.644 240.539 202.449 240.276 202.235C240.017 202.023 239.821 201.755 239.821 201.432C239.821 201.109 240.017 200.842 240.276 200.63C240.539 200.415 240.909 200.221 241.358 200.043C242.259 199.687 243.546 199.371 245.117 199.108Z" fill="#9CA3AF"/>
<path fill-rule="evenodd" clip-rule="evenodd" d="M332.675 256.608C332.731 256.662 332.762 256.736 332.762 256.813V272.343C332.762 272.419 332.731 272.493 332.675 272.547C332.62 272.6 332.546 272.629 332.469 272.627L321.243 272.308C321.089 272.304 320.966 272.178 320.966 272.024V257.143C320.966 256.989 321.089 256.863 321.242 256.858L332.469 256.528C332.546 256.526 332.62 256.555 332.675 256.608ZM321.535 257.419V271.747L332.192 272.05V257.106L321.535 257.419Z" fill="#9CA3AF"/>
<path fill-rule="evenodd" clip-rule="evenodd" d="M330.409 259.101C330.465 259.155 330.496 259.229 330.496 259.306V262.972C330.496 263.127 330.372 263.254 330.217 263.257L323.671 263.393C323.594 263.395 323.52 263.366 323.465 263.312C323.411 263.259 323.38 263.185 323.38 263.109V259.522C323.38 259.369 323.502 259.243 323.655 259.238L330.202 259.022C330.279 259.019 330.354 259.048 330.409 259.101ZM323.949 259.798V262.818L329.927 262.693V259.6L323.949 259.798Z" fill="#9CA3AF"/>
<path fill-rule="evenodd" clip-rule="evenodd" d="M323.38 265.397C323.38 265.24 323.507 265.113 323.665 265.113H330.348C330.505 265.113 330.633 265.24 330.633 265.397C330.633 265.555 330.505 265.682 330.348 265.682H323.665C323.507 265.682 323.38 265.555 323.38 265.397Z" fill="#9CA3AF"/>
<path fill-rule="evenodd" clip-rule="evenodd" d="M323.38 267.571C323.38 267.414 323.507 267.287 323.665 267.287H330.211C330.368 267.287 330.496 267.414 330.496 267.571C330.496 267.728 330.368 267.856 330.211 267.856H323.665C323.507 267.856 323.38 267.728 323.38 267.571Z" fill="#9CA3AF"/>
<path fill-rule="evenodd" clip-rule="evenodd" d="M323.38 269.48C323.383 269.323 323.512 269.198 323.67 269.201L330.216 269.314C330.373 269.317 330.499 269.447 330.496 269.604C330.493 269.761 330.364 269.886 330.206 269.884L323.66 269.77C323.502 269.767 323.377 269.637 323.38 269.48Z" fill="#9CA3AF"/>
<path fill-rule="evenodd" clip-rule="evenodd" d="M373.039 220.642C373.101 220.588 373.184 220.564 373.265 220.575L441.408 230.151C441.549 230.17 441.653 230.291 441.653 230.433V280.358C441.653 280.509 441.537 280.633 441.387 280.642L373.244 284.958C373.165 284.963 373.088 284.935 373.031 284.881C372.974 284.827 372.941 284.752 372.941 284.674V220.857C372.941 220.775 372.977 220.696 373.039 220.642ZM373.51 221.185V284.37L441.084 280.091V230.68L373.51 221.185Z" fill="#9CA3AF"/>
<path fill-rule="evenodd" clip-rule="evenodd" d="M438.044 229.681C438.201 229.681 438.329 229.808 438.329 229.965V280.016C438.329 280.168 438.21 280.293 438.059 280.301L373.241 283.796C373.084 283.805 372.95 283.684 372.942 283.527C372.933 283.37 373.053 283.236 373.21 283.228L437.759 279.747V229.965C437.759 229.808 437.887 229.681 438.044 229.681Z" fill="#9CA3AF"/>
<path fill-rule="evenodd" clip-rule="evenodd" d="M437.761 279.988C437.777 279.831 437.917 279.717 438.073 279.734L441.398 280.075C441.554 280.091 441.668 280.231 441.652 280.387C441.636 280.544 441.496 280.657 441.34 280.641L438.015 280.3C437.859 280.284 437.745 280.144 437.761 279.988Z" fill="#9CA3AF"/>
<path fill-rule="evenodd" clip-rule="evenodd" d="M410.206 225.764C410.364 225.764 410.491 225.891 410.491 226.049V281.519C410.491 281.677 410.364 281.804 410.206 281.804C410.049 281.804 409.922 281.677 409.922 281.519V226.049C409.922 225.891 410.049 225.764 410.206 225.764Z" fill="#9CA3AF"/>
<path fill-rule="evenodd" clip-rule="evenodd" d="M411.812 225.98C411.969 225.98 412.096 226.108 412.096 226.265V281.428C412.096 281.585 411.969 281.713 411.812 281.713C411.655 281.713 411.527 281.585 411.527 281.428V226.265C411.527 226.108 411.655 225.98 411.812 225.98Z" fill="#9CA3AF"/>
<path fill-rule="evenodd" clip-rule="evenodd" d="M373.072 114.208C373.154 114.156 373.257 114.149 373.345 114.189L441.488 145.659C441.589 145.706 441.653 145.807 441.653 145.918V198.474C441.653 198.561 441.613 198.644 441.544 198.698C441.475 198.751 441.386 198.771 441.301 198.75L373.158 182.025C373.031 181.993 372.941 181.879 372.941 181.748V114.448C372.941 114.351 372.991 114.26 373.072 114.208ZM373.51 114.893V181.525L441.084 198.111V146.1L373.51 114.893Z" fill="#9CA3AF"/>
<path fill-rule="evenodd" clip-rule="evenodd" d="M372.965 118.147C373.029 118.003 373.197 117.937 373.34 118.001L438.159 146.487C438.262 146.533 438.329 146.635 438.329 146.748V197.664C438.329 197.822 438.201 197.949 438.044 197.949C437.887 197.949 437.759 197.822 437.759 197.664V146.934L373.111 118.522C372.967 118.459 372.902 118.291 372.965 118.147Z" fill="#9CA3AF"/>
<path fill-rule="evenodd" clip-rule="evenodd" d="M441.645 145.848C441.683 146.001 441.59 146.155 441.438 146.193L438.113 147.024C437.961 147.062 437.806 146.97 437.768 146.817C437.73 146.665 437.823 146.51 437.975 146.472L441.3 145.641C441.452 145.603 441.607 145.696 441.645 145.848Z" fill="#9CA3AF"/>
<path fill-rule="evenodd" clip-rule="evenodd" d="M411.812 134.929C411.969 134.929 412.096 135.056 412.096 135.213V191.219C412.096 191.376 411.969 191.504 411.812 191.504C411.655 191.504 411.527 191.376 411.527 191.219V135.213C411.527 135.056 411.655 134.929 411.812 134.929Z" fill="#9CA3AF"/>
<path fill-rule="evenodd" clip-rule="evenodd" d="M410.206 134.224C410.364 134.224 410.491 134.351 410.491 134.508V190.821C410.491 190.979 410.364 191.106 410.206 191.106C410.049 191.106 409.922 190.979 409.922 190.821V134.508C409.922 134.351 410.049 134.224 410.206 134.224Z" fill="#9CA3AF"/>
<path fill-rule="evenodd" clip-rule="evenodd" d="M263.198 22.4797C263.285 22.4283 263.392 22.4265 263.48 22.4748L315.899 51.1665C315.991 51.2164 316.047 51.3122 316.047 51.4162V60.1034C316.047 60.2606 315.92 60.388 315.763 60.388C315.605 60.388 315.478 60.2606 315.478 60.1034V51.5849L263.349 23.0521L217.869 50.0526V55.2642L234.722 61.8993C234.831 61.9422 234.902 62.0472 234.902 62.1642V111.282C234.902 111.439 234.775 111.566 234.618 111.566C234.46 111.566 234.333 111.439 234.333 111.282V62.358L217.48 55.7229C217.372 55.6801 217.3 55.575 217.3 55.4581V49.8905C217.3 49.7901 217.353 49.697 217.439 49.6458L263.198 22.4797Z" fill="#9CA3AF"/>
<path fill-rule="evenodd" clip-rule="evenodd" d="M239.148 59.5986C239.233 59.6501 239.286 59.7426 239.286 59.8424V109.575C239.286 109.732 239.158 109.859 239.001 109.859C238.844 109.859 238.716 109.732 238.716 109.575V60.3154L234.751 62.4166C234.612 62.4902 234.44 62.4373 234.366 62.2984C234.293 62.1595 234.345 61.9872 234.484 61.9136L238.868 59.5909C238.956 59.5442 239.062 59.5471 239.148 59.5986Z" fill="#9CA3AF"/>
<path fill-rule="evenodd" clip-rule="evenodd" d="M238.74 59.729C238.803 59.5848 238.97 59.5188 239.115 59.5815L272.93 74.2917C273.074 74.3544 273.14 74.5221 273.077 74.6663C273.015 74.8104 272.847 74.8764 272.703 74.8137L238.888 60.1035C238.743 60.0408 238.677 59.8731 238.74 59.729Z" fill="#9CA3AF"/>
<path fill-rule="evenodd" clip-rule="evenodd" d="M278.987 38.7624C279.072 38.814 279.124 38.9063 279.124 39.0059V76.2596C279.124 76.4168 278.996 76.5443 278.839 76.5443C278.682 76.5443 278.555 76.4168 278.555 76.2596V39.4763L273.101 42.332V78.8897C273.101 79.0469 272.974 79.1743 272.816 79.1743C272.659 79.1743 272.532 79.0469 272.532 78.8897V42.1598C272.532 42.0539 272.59 41.9567 272.684 41.9076L278.707 38.7538C278.796 38.7076 278.901 38.7108 278.987 38.7624Z" fill="#9CA3AF"/>
<path fill-rule="evenodd" clip-rule="evenodd" d="M263.229 30.0919C263.315 30.0447 263.42 30.0451 263.505 30.0931L278.978 38.7575C279.115 38.8343 279.164 39.0078 279.088 39.1449C279.011 39.2821 278.837 39.331 278.7 39.2542L263.365 30.6669L217.722 55.7076C217.584 55.7832 217.411 55.7328 217.335 55.595C217.26 55.4572 217.31 55.2841 217.448 55.2085L263.229 30.0919Z" fill="#9CA3AF"/>
<path fill-rule="evenodd" clip-rule="evenodd" d="M263.342 22.4398C263.5 22.4394 263.627 22.5664 263.628 22.7236L263.651 30.3406C263.651 30.4978 263.524 30.6256 263.367 30.6261C263.21 30.6265 263.082 30.4995 263.081 30.3423L263.059 22.7253C263.058 22.5681 263.185 22.4403 263.342 22.4398Z" fill="#9CA3AF"/>
<path fill-rule="evenodd" clip-rule="evenodd" d="M218.482 228.73C218.541 228.784 218.575 228.86 218.575 228.94V277.648C218.575 277.726 218.543 277.8 218.487 277.854C218.431 277.907 218.356 277.936 218.278 277.932L144.659 274.744C144.507 274.738 144.386 274.612 144.386 274.46V235.795C144.386 235.648 144.498 235.525 144.645 235.511L218.264 228.657C218.344 228.65 218.423 228.676 218.482 228.73ZM144.956 236.054V274.187L218.006 277.351V229.253L144.956 236.054Z" fill="#9CA3AF"/>
<path fill-rule="evenodd" clip-rule="evenodd" d="M218.574 229.825C218.588 229.981 218.473 230.12 218.317 230.135L147.202 236.727C147.17 236.73 147.136 236.727 147.105 236.719L144.6 236.07C144.448 236.031 144.356 235.875 144.396 235.723C144.435 235.571 144.59 235.48 144.743 235.519L147.199 236.155L218.264 229.568C218.421 229.553 218.559 229.668 218.574 229.825Z" fill="#9CA3AF"/>
<path fill-rule="evenodd" clip-rule="evenodd" d="M147.176 236.159C147.334 236.159 147.461 236.286 147.461 236.443V274.562C147.461 274.719 147.334 274.847 147.176 274.847C147.019 274.847 146.892 274.719 146.892 274.562V236.443C146.892 236.286 147.019 236.159 147.176 236.159Z" fill="#9CA3AF"/>
<path fill-rule="evenodd" clip-rule="evenodd" d="M179.58 233.154C179.737 233.154 179.864 233.281 179.864 233.438V275.975C179.864 276.132 179.737 276.26 179.58 276.26C179.423 276.26 179.295 276.132 179.295 275.975V233.438C179.295 233.281 179.423 233.154 179.58 233.154Z" fill="#9CA3AF"/>
<path fill-rule="evenodd" clip-rule="evenodd" d="M177.849 233.312C178.006 233.312 178.134 233.44 178.134 233.597V275.894C178.134 276.051 178.006 276.179 177.849 276.179C177.692 276.179 177.564 276.051 177.564 275.894V233.597C177.564 233.44 177.692 233.312 177.849 233.312Z" fill="#9CA3AF"/>
<path fill-rule="evenodd" clip-rule="evenodd" d="M218.455 135.757C218.53 135.81 218.575 135.896 218.575 135.989V180.643C218.575 180.776 218.482 180.892 218.352 180.921L144.733 197.214C144.648 197.232 144.56 197.212 144.493 197.158C144.426 197.104 144.386 197.022 144.386 196.936V161.674C144.386 161.553 144.463 161.446 144.577 161.406L218.197 135.72C218.284 135.689 218.38 135.703 218.455 135.757ZM144.956 161.877V196.581L218.006 180.414V136.389L144.956 161.877Z" fill="#9CA3AF"/>
<path fill-rule="evenodd" clip-rule="evenodd" d="M179.58 151.199C179.737 151.199 179.864 151.327 179.864 151.484V189.216C179.864 189.373 179.737 189.501 179.58 189.501C179.423 189.501 179.295 189.373 179.295 189.216V151.484C179.295 151.327 179.423 151.199 179.58 151.199Z" fill="#9CA3AF"/>
<path fill-rule="evenodd" clip-rule="evenodd" d="M177.849 151.792C178.006 151.792 178.134 151.919 178.134 152.076V189.592C178.134 189.749 178.006 189.876 177.849 189.876C177.692 189.876 177.564 189.749 177.564 189.592V152.076C177.564 151.919 177.692 151.792 177.849 151.792Z" fill="#9CA3AF"/>
<path fill-rule="evenodd" clip-rule="evenodd" d="M218.56 138.186C218.611 138.334 218.531 138.496 218.383 138.547L147.108 162.858V196.458C147.108 196.615 146.98 196.743 146.823 196.743C146.666 196.743 146.539 196.615 146.539 196.458V162.654C146.539 162.532 146.616 162.424 146.731 162.385L218.199 138.008C218.348 137.957 218.509 138.037 218.56 138.186Z" fill="#9CA3AF"/>
<path fill-rule="evenodd" clip-rule="evenodd" d="M245.198 107.159C245.255 107.306 245.183 107.471 245.036 107.528L126.779 153.548L129.326 155.137C129.459 155.22 129.5 155.396 129.417 155.529C129.334 155.662 129.158 155.703 129.025 155.62L125.996 153.73C125.905 153.673 125.853 153.569 125.863 153.462C125.873 153.354 125.943 153.262 126.044 153.223L244.83 106.997C244.976 106.94 245.141 107.013 245.198 107.159Z" fill="#9CA3AF"/>
<path fill-rule="evenodd" clip-rule="evenodd" d="M144.412 161.556C144.477 161.413 144.646 161.35 144.789 161.415L146.941 162.394C147.084 162.459 147.147 162.628 147.082 162.771C147.017 162.914 146.848 162.978 146.705 162.913L144.553 161.933C144.41 161.868 144.347 161.699 144.412 161.556Z" fill="#9CA3AF"/>
<path fill-rule="evenodd" clip-rule="evenodd" d="M281.347 104.921C281.424 104.975 281.47 105.062 281.47 105.156V160.956C281.47 161.09 281.377 161.205 281.247 161.234L259.285 166.187C259.2 166.206 259.112 166.186 259.044 166.132C258.977 166.077 258.937 165.996 258.937 165.909V113.467C258.937 113.349 259.011 113.243 259.121 113.201L281.084 104.889C281.172 104.856 281.27 104.868 281.347 104.921ZM259.507 113.664V165.553L280.9 160.729V105.568L259.507 113.664Z" fill="#9CA3AF"/>
<path fill-rule="evenodd" clip-rule="evenodd" d="M315.926 92.8658C316.002 92.9191 316.047 93.006 316.047 93.0987V154.194C316.047 154.329 315.953 154.445 315.821 154.473L288.825 160.063C288.741 160.08 288.654 160.059 288.588 160.005C288.521 159.951 288.483 159.87 288.483 159.784V102.822C288.483 102.702 288.558 102.595 288.671 102.554L315.666 92.8309C315.754 92.7995 315.851 92.8125 315.926 92.8658ZM289.052 103.022V159.435L315.478 153.962V93.5038L289.052 103.022Z" fill="#9CA3AF"/>
<path fill-rule="evenodd" clip-rule="evenodd" d="M281.454 108.924C281.505 109.072 281.425 109.234 281.277 109.285L262.569 115.663V165.272C262.569 165.429 262.442 165.556 262.285 165.556C262.127 165.556 262 165.429 262 165.272V115.46C262 115.338 262.078 115.23 262.193 115.19L281.093 108.746C281.242 108.695 281.403 108.775 281.454 108.924Z" fill="#9CA3AF"/>
<path fill-rule="evenodd" clip-rule="evenodd" d="M258.983 113.313C259.069 113.181 259.245 113.144 259.377 113.23L262.44 115.222C262.572 115.308 262.609 115.484 262.523 115.616C262.437 115.748 262.261 115.785 262.129 115.699L259.067 113.707C258.935 113.621 258.897 113.445 258.983 113.313Z" fill="#9CA3AF"/>
<path fill-rule="evenodd" clip-rule="evenodd" d="M316.032 97.1281C316.083 97.2768 316.004 97.4386 315.855 97.4895L293.22 105.232C293.149 105.256 293.071 105.251 293.003 105.218L288.642 103.077C288.501 103.008 288.443 102.838 288.512 102.696C288.581 102.555 288.752 102.497 288.893 102.566L293.148 104.655L315.671 96.9509C315.819 96.9 315.981 96.9793 316.032 97.1281Z" fill="#9CA3AF"/>
<path fill-rule="evenodd" clip-rule="evenodd" d="M293.128 104.678C293.286 104.678 293.413 104.806 293.413 104.963V158.828C293.413 158.985 293.286 159.113 293.128 159.113C292.971 159.113 292.844 158.985 292.844 158.828V104.963C292.844 104.806 292.971 104.678 293.128 104.678Z" fill="#9CA3AF"/>
<path fill-rule="evenodd" clip-rule="evenodd" d="M129.459 301.24C129.472 301.397 129.355 301.534 129.198 301.546L18.5872 310.292V318.408L330.197 421.474L521.125 337.385V327.13L465.209 322.393C465.052 322.38 464.936 322.242 464.949 322.085C464.963 321.929 465.1 321.812 465.257 321.826L521.434 326.585C521.581 326.597 521.694 326.721 521.694 326.869V337.571C521.694 337.684 521.628 337.786 521.524 337.831L330.326 422.039C330.261 422.068 330.189 422.071 330.122 422.049L18.2132 318.884C18.0966 318.846 18.0179 318.737 18.0179 318.614V310.029C18.0179 309.881 18.1321 309.757 18.2801 309.745L129.153 300.979C129.31 300.966 129.447 301.083 129.459 301.24Z" fill="#9CA3AF"/>
<path fill-rule="evenodd" clip-rule="evenodd" d="M18.0292 309.948C18.0732 309.798 18.2313 309.711 18.3822 309.755L330.198 400.847L521.306 326.602C521.453 326.545 521.618 326.618 521.675 326.764C521.732 326.911 521.659 327.076 521.513 327.133L330.314 401.413C330.256 401.435 330.191 401.438 330.131 401.42L18.2226 310.301C18.0717 310.257 17.9851 310.099 18.0292 309.948Z" fill="#9CA3AF"/>
<path fill-rule="evenodd" clip-rule="evenodd" d="M330.211 400.863C330.369 400.863 330.496 400.99 330.496 401.148V421.778C330.496 421.935 330.369 422.063 330.211 422.063C330.054 422.063 329.927 421.935 329.927 421.778V401.148C329.927 400.99 330.054 400.863 330.211 400.863Z" fill="#9CA3AF"/>
<path fill-rule="evenodd" clip-rule="evenodd" d="M465.233 82.4825C465.312 82.4825 465.375 82.5462 465.375 82.6248V380.051C465.375 380.13 465.312 380.193 465.233 380.193C465.154 380.193 465.091 380.13 465.091 380.051V82.6248C465.091 82.5462 465.154 82.4825 465.233 82.4825Z" fill="#9CA3AF"/>
<path fill-rule="evenodd" clip-rule="evenodd" d="M465.091 322.097C465.098 322.019 465.167 321.961 465.245 321.967L529.255 327.375C529.333 327.382 529.391 327.451 529.385 327.529C529.378 327.607 529.309 327.666 529.231 327.659L465.221 322.251C465.143 322.244 465.085 322.175 465.091 322.097Z" fill="#9CA3AF"/>
<path fill-rule="evenodd" clip-rule="evenodd" d="M521.41 319.735C521.488 319.735 521.552 319.799 521.552 319.877V345.711C521.552 345.79 521.488 345.853 521.41 345.853C521.331 345.853 521.267 345.79 521.267 345.711V319.877C521.267 319.799 521.331 319.735 521.41 319.735Z" fill="#9CA3AF"/>
<path fill-rule="evenodd" clip-rule="evenodd" d="M529.375 323.697C529.404 323.77 529.368 323.853 529.294 323.881L290.811 416.617C290.738 416.646 290.656 416.609 290.627 416.536C290.599 416.463 290.635 416.38 290.708 416.352L529.191 323.616C529.264 323.588 529.347 323.624 529.375 323.697Z" fill="#9CA3AF"/>
<path fill-rule="evenodd" clip-rule="evenodd" d="M529.373 334.087C529.405 334.159 529.372 334.243 529.3 334.275L290.817 439.284C290.745 439.316 290.661 439.283 290.63 439.211C290.598 439.139 290.631 439.055 290.703 439.023L529.185 334.014C529.257 333.982 529.341 334.015 529.373 334.087Z" fill="#9CA3AF"/>
<path fill-rule="evenodd" clip-rule="evenodd" d="M0.609323 304.865C0.631362 304.79 0.710391 304.746 0.785839 304.768L369.782 412.556C369.857 412.578 369.901 412.657 369.879 412.732C369.856 412.808 369.777 412.851 369.702 412.829L0.706028 305.042C0.63058 305.019 0.587284 304.94 0.609323 304.865Z" fill="#9CA3AF"/>
<path fill-rule="evenodd" clip-rule="evenodd" d="M2.1708 313.275C2.19548 313.2 2.27599 313.16 2.35061 313.184L367.316 433.906C367.391 433.931 367.431 434.011 367.407 434.086C367.382 434.16 367.301 434.201 367.227 434.176L2.26123 313.455C2.1866 313.43 2.14612 313.35 2.1708 313.275Z" fill="#9CA3AF"/>
<path fill-rule="evenodd" clip-rule="evenodd" d="M37.0417 302.878C37.0608 302.801 37.138 302.755 37.2143 302.774L348.007 380.367C348.083 380.386 348.13 380.463 348.111 380.54C348.092 380.616 348.014 380.662 347.938 380.643L37.1454 303.05C37.0691 303.031 37.0227 302.954 37.0417 302.878Z" fill="#9CA3AF"/>
<path fill-rule="evenodd" clip-rule="evenodd" d="M327.708 350.389C327.727 350.466 327.681 350.543 327.605 350.563L269.892 365.33C269.815 365.349 269.738 365.303 269.718 365.227C269.699 365.151 269.745 365.073 269.821 365.054L327.535 350.287C327.611 350.267 327.688 350.313 327.708 350.389Z" fill="#9CA3AF"/>
<path fill-rule="evenodd" clip-rule="evenodd" d="M170.173 328.01C170.19 327.933 170.266 327.885 170.343 327.902L348.003 367.444C348.08 367.461 348.129 367.537 348.111 367.614C348.094 367.691 348.018 367.739 347.942 367.722L170.281 328.18C170.204 328.163 170.156 328.087 170.173 328.01Z" fill="#9CA3AF"/>
<path fill-rule="evenodd" clip-rule="evenodd" d="M221.33 334.901C221.409 334.901 221.473 334.965 221.473 335.043V352.042C221.473 352.121 221.409 352.184 221.33 352.184C221.252 352.184 221.188 352.121 221.188 352.042V335.043C221.188 334.965 221.252 334.901 221.33 334.901Z" fill="#9CA3AF"/>
<path fill-rule="evenodd" clip-rule="evenodd" d="M221.471 339.371C221.483 339.448 221.429 339.521 221.352 339.533L213.723 340.671C213.645 340.683 213.573 340.629 213.561 340.551C213.55 340.474 213.603 340.401 213.681 340.39L221.31 339.251C221.387 339.239 221.46 339.293 221.471 339.371Z" fill="#9CA3AF"/>
<path fill-rule="evenodd" clip-rule="evenodd" d="M221.47 348.859C221.486 348.936 221.436 349.011 221.359 349.027L213.73 350.564C213.653 350.58 213.578 350.53 213.563 350.453C213.547 350.376 213.597 350.3 213.674 350.285L221.302 348.748C221.38 348.732 221.455 348.782 221.47 348.859Z" fill="#9CA3AF"/>
<path fill-rule="evenodd" clip-rule="evenodd" d="M278.285 352.017C278.299 352.095 278.247 352.168 278.169 352.182L269.881 353.628C269.803 353.641 269.73 353.59 269.716 353.512C269.703 353.435 269.754 353.361 269.832 353.348L278.121 351.902C278.198 351.888 278.272 351.94 278.285 352.017Z" fill="#9CA3AF"/>
<path fill-rule="evenodd" clip-rule="evenodd" d="M330.211 384.348C330.29 384.348 330.354 384.412 330.354 384.491V446.69C330.354 446.769 330.29 446.832 330.211 446.832C330.133 446.832 330.069 446.769 330.069 446.69V384.491C330.069 384.412 330.133 384.348 330.211 384.348Z" fill="#9CA3AF"/>
<path fill-rule="evenodd" clip-rule="evenodd" d="M326.723 214.336C326.734 214.258 326.806 214.204 326.884 214.215L516.477 240.835C516.555 240.845 516.609 240.917 516.598 240.995C516.587 241.073 516.515 241.127 516.437 241.116L326.844 214.497C326.766 214.486 326.712 214.414 326.723 214.336Z" fill="#9CA3AF"/>
<path fill-rule="evenodd" clip-rule="evenodd" d="M507.16 276.182C507.165 276.26 507.106 276.328 507.027 276.333L326.873 287.753C326.794 287.758 326.727 287.698 326.722 287.619C326.717 287.541 326.776 287.473 326.855 287.468L507.009 276.049C507.088 276.044 507.155 276.103 507.16 276.182Z" fill="#9CA3AF"/>
<path fill-rule="evenodd" clip-rule="evenodd" d="M248.659 0.165555C248.699 0.0978339 248.786 0.075281 248.854 0.115181L509.402 153.627C509.47 153.667 509.492 153.754 509.452 153.822C509.412 153.89 509.325 153.912 509.257 153.872L248.709 0.36042C248.641 0.32052 248.619 0.233276 248.659 0.165555Z" fill="#9CA3AF"/>
<path fill-rule="evenodd" clip-rule="evenodd" d="M453.01 0.0784896C453.042 0.150504 453.009 0.234417 452.937 0.265914L236.872 94.7664C236.8 94.7979 236.716 94.7651 236.685 94.693C236.653 94.621 236.686 94.5371 236.758 94.5056L452.823 0.00512637C452.895 -0.0263707 452.979 0.00647513 453.01 0.0784896Z" fill="#9CA3AF"/>
<path fill-rule="evenodd" clip-rule="evenodd" d="M509.467 310.448C509.487 310.524 509.442 310.601 509.366 310.621L168.196 400.556C168.12 400.576 168.042 400.531 168.022 400.455C168.002 400.379 168.048 400.301 168.124 400.281L509.293 310.346C509.369 310.326 509.447 310.372 509.467 310.448Z" fill="#9CA3AF"/>
<path fill-rule="evenodd" clip-rule="evenodd" d="M509.47 286.931C509.481 287.008 509.427 287.08 509.349 287.091L327.032 312.686C326.954 312.697 326.882 312.643 326.871 312.565C326.86 312.487 326.914 312.415 326.992 312.404L509.31 286.809C509.388 286.798 509.46 286.853 509.47 286.931Z" fill="#9CA3AF"/>
<path fill-rule="evenodd" clip-rule="evenodd" d="M320.62 309.671C320.628 309.593 320.699 309.537 320.777 309.546L344.618 312.199C344.696 312.207 344.753 312.278 344.744 312.356C344.735 312.434 344.665 312.49 344.587 312.481L320.745 309.829C320.667 309.82 320.611 309.75 320.62 309.671Z" fill="#9CA3AF"/>
<path fill-rule="evenodd" clip-rule="evenodd" d="M240.317 300.745C240.326 300.667 240.396 300.611 240.474 300.62L245.484 301.177C245.562 301.186 245.618 301.257 245.61 301.335C245.601 301.413 245.531 301.469 245.452 301.46L240.443 300.902C240.365 300.894 240.308 300.823 240.317 300.745Z" fill="#9CA3AF"/>
<path fill-rule="evenodd" clip-rule="evenodd" d="M79.1325 297.808C79.147 297.731 79.2215 297.68 79.2987 297.695L345.756 347.928C345.833 347.943 345.884 348.017 345.87 348.094C345.855 348.172 345.781 348.222 345.703 348.208L79.246 297.975C79.1687 297.96 79.1179 297.886 79.1325 297.808Z" fill="#9CA3AF"/>
<path fill-rule="evenodd" clip-rule="evenodd" d="M301.18 338.578C301.197 338.655 301.147 338.73 301.07 338.746L290.789 340.898C290.712 340.914 290.637 340.865 290.621 340.788C290.604 340.711 290.654 340.636 290.731 340.619L301.012 338.468C301.089 338.451 301.164 338.501 301.18 338.578Z" fill="#9CA3AF"/>
<path fill-rule="evenodd" clip-rule="evenodd" d="M252.497 326.005C252.509 326.082 252.456 326.155 252.378 326.167L234.389 328.98C234.311 328.992 234.239 328.939 234.226 328.861C234.214 328.783 234.267 328.71 234.345 328.698L252.334 325.886C252.412 325.874 252.485 325.927 252.497 326.005Z" fill="#9CA3AF"/>
<path fill-rule="evenodd" clip-rule="evenodd" d="M298.305 79.8554C298.338 79.784 298.422 79.7529 298.494 79.7858L509.389 177.178C509.461 177.211 509.492 177.296 509.459 177.367C509.426 177.439 509.341 177.47 509.27 177.437L298.374 80.0442C298.303 80.0113 298.272 79.9267 298.305 79.8554Z" fill="#9CA3AF"/>
<path fill-rule="evenodd" clip-rule="evenodd" d="M521.268 337.556C521.276 337.478 521.347 337.421 521.425 337.43L529.258 338.272C529.336 338.281 529.393 338.351 529.384 338.429C529.376 338.507 529.306 338.564 529.228 338.555L521.394 337.713C521.316 337.704 521.26 337.634 521.268 337.556Z" fill="#9CA3AF"/>
<path fill-rule="evenodd" clip-rule="evenodd" d="M323.229 353.882C323.244 353.805 323.318 353.754 323.396 353.769L474.221 382.848C474.298 382.863 474.348 382.937 474.333 383.014C474.319 383.092 474.244 383.142 474.167 383.127L323.342 354.048C323.264 354.034 323.214 353.959 323.229 353.882Z" fill="#9CA3AF"/>
<path fill-rule="evenodd" clip-rule="evenodd" d="M345.871 197.236C345.881 197.314 345.826 197.385 345.748 197.395L239.611 210.944C239.533 210.954 239.462 210.899 239.452 210.821C239.442 210.743 239.497 210.672 239.575 210.662L345.712 197.113C345.79 197.103 345.861 197.158 345.871 197.236Z" fill="#9CA3AF"/>
<path fill-rule="evenodd" clip-rule="evenodd" d="M268.407 186.391C268.421 186.313 268.495 186.262 268.572 186.276L345.755 200.223C345.832 200.237 345.884 200.311 345.87 200.389C345.856 200.466 345.782 200.517 345.704 200.503L268.521 186.556C268.444 186.542 268.393 186.468 268.407 186.391Z" fill="#9CA3AF"/>
<path fill-rule="evenodd" clip-rule="evenodd" d="M268.408 166.57C268.427 166.494 268.505 166.447 268.581 166.466L311.812 177.169C311.888 177.188 311.935 177.265 311.916 177.341C311.897 177.417 311.82 177.464 311.744 177.445L268.512 166.742C268.436 166.724 268.39 166.646 268.408 166.57Z" fill="#9CA3AF"/>
<path fill-rule="evenodd" clip-rule="evenodd" d="M320.901 164.64C320.916 164.717 320.867 164.792 320.79 164.808L174.132 194.889C174.055 194.905 173.98 194.855 173.964 194.778C173.948 194.701 173.998 194.626 174.075 194.61L320.732 164.529C320.809 164.513 320.885 164.563 320.901 164.64Z" fill="#9CA3AF"/>
<path fill-rule="evenodd" clip-rule="evenodd" d="M320.902 184.824C320.914 184.901 320.86 184.974 320.783 184.986L174.125 207.393C174.047 207.405 173.974 207.351 173.962 207.273C173.951 207.196 174.004 207.123 174.082 207.111L320.74 184.704C320.817 184.693 320.89 184.746 320.902 184.824Z" fill="#9CA3AF"/>
<path fill-rule="evenodd" clip-rule="evenodd" d="M185.393 204.31C185.4 204.232 185.47 204.175 185.548 204.183L233.14 208.828C233.218 208.836 233.276 208.905 233.268 208.983C233.26 209.062 233.191 209.119 233.112 209.111L185.521 204.466C185.442 204.458 185.385 204.389 185.393 204.31Z" fill="#9CA3AF"/>
<path fill-rule="evenodd" clip-rule="evenodd" d="M185.393 190.744C185.405 190.666 185.477 190.612 185.555 190.624L190.257 191.307C190.335 191.318 190.389 191.39 190.377 191.468C190.366 191.546 190.294 191.6 190.216 191.588L185.514 190.905C185.436 190.894 185.382 190.822 185.393 190.744Z" fill="#9CA3AF"/>
<path fill-rule="evenodd" clip-rule="evenodd" d="M345.872 225.414C345.876 225.493 345.816 225.56 345.738 225.564L239.601 231.747C239.523 231.751 239.456 231.691 239.451 231.613C239.447 231.535 239.506 231.467 239.585 231.463L345.721 225.28C345.8 225.276 345.867 225.336 345.872 225.414Z" fill="#9CA3AF"/>
<path fill-rule="evenodd" clip-rule="evenodd" d="M240.318 321.47C240.332 321.392 240.406 321.341 240.483 321.354L344.627 339.548C344.705 339.562 344.756 339.635 344.743 339.713C344.729 339.79 344.656 339.842 344.578 339.829L240.434 321.634C240.357 321.621 240.305 321.547 240.318 321.47Z" fill="#9CA3AF"/>
<path fill-rule="evenodd" clip-rule="evenodd" d="M453.014 43.6596C453.04 43.7336 453.002 43.8151 452.928 43.8418L236.863 121.662C236.789 121.689 236.708 121.651 236.681 121.577C236.655 121.503 236.693 121.421 236.767 121.395L452.831 43.574C452.905 43.5473 452.987 43.5857 453.014 43.6596Z" fill="#9CA3AF"/>
<path fill-rule="evenodd" clip-rule="evenodd" d="M483.623 119.428C483.639 119.505 483.59 119.58 483.513 119.596L236.844 170.695C236.767 170.71 236.692 170.661 236.676 170.584C236.66 170.507 236.709 170.432 236.786 170.416L483.455 119.317C483.532 119.301 483.607 119.351 483.623 119.428Z" fill="#9CA3AF"/>
<path fill-rule="evenodd" clip-rule="evenodd" d="M253.689 17.3839C253.727 17.3151 253.814 17.2901 253.883 17.3282L324.599 56.4263C324.667 56.4644 324.692 56.5509 324.654 56.6197C324.616 56.6885 324.53 56.7135 324.461 56.6754L253.745 17.5773C253.676 17.5392 253.651 17.4526 253.689 17.3839Z" fill="#9CA3AF"/>
<path fill-rule="evenodd" clip-rule="evenodd" d="M294.64 4.19647C294.68 4.26424 294.657 4.35145 294.589 4.39128L185.982 68.219C185.914 68.2588 185.827 68.2361 185.787 68.1684C185.747 68.1006 185.77 68.0134 185.838 67.9736L294.445 4.14588C294.513 4.10606 294.6 4.12871 294.64 4.19647Z" fill="#9CA3AF"/>
<path fill-rule="evenodd" clip-rule="evenodd" d="M302.396 8.93616C302.433 9.00507 302.408 9.09158 302.339 9.12938L185.603 73.162C185.534 73.1998 185.447 73.1746 185.409 73.1057C185.372 73.0368 185.397 72.9502 185.466 72.9124L302.202 8.87982C302.271 8.84202 302.358 8.86724 302.396 8.93616Z" fill="#9CA3AF"/>
<path fill-rule="evenodd" clip-rule="evenodd" d="M146.691 27.5346C146.72 27.4614 146.802 27.4255 146.875 27.4543L232.142 61.0418C232.215 61.0706 232.251 61.1533 232.223 61.2264C232.194 61.2995 232.111 61.3355 232.038 61.3067L146.771 27.7191C146.698 27.6903 146.662 27.6077 146.691 27.5346Z" fill="#9CA3AF"/>
<path fill-rule="evenodd" clip-rule="evenodd" d="M150.279 21.4172C150.309 21.3448 150.393 21.311 150.465 21.3416L217.64 49.7601C217.713 49.7907 217.747 49.8742 217.716 49.9466C217.685 50.019 217.602 50.0528 217.529 50.0222L150.354 21.6038C150.282 21.5731 150.248 21.4896 150.279 21.4172Z" fill="#9CA3AF"/>
<path fill-rule="evenodd" clip-rule="evenodd" d="M268.408 156.005C268.427 155.928 268.504 155.882 268.581 155.9L521.443 217.997C521.52 218.016 521.566 218.093 521.548 218.17C521.529 218.246 521.452 218.293 521.376 218.274L268.513 156.177C268.436 156.158 268.39 156.081 268.408 156.005Z" fill="#9CA3AF"/>
<path fill-rule="evenodd" clip-rule="evenodd" d="M245.075 226.457C245.082 226.535 245.024 226.604 244.946 226.612L56.0704 244.18C55.9921 244.187 55.9228 244.129 55.9155 244.051C55.9082 243.973 55.9658 243.903 56.0441 243.896L244.92 226.328C244.998 226.321 245.067 226.378 245.075 226.457Z" fill="#9CA3AF"/>
<path fill-rule="evenodd" clip-rule="evenodd" d="M70.6139 271.255C70.6173 271.176 70.6837 271.115 70.7623 271.119L244.939 278.656C245.018 278.659 245.079 278.726 245.075 278.804C245.072 278.883 245.005 278.944 244.927 278.94L70.7499 271.403C70.6714 271.4 70.6105 271.333 70.6139 271.255Z" fill="#9CA3AF"/>
<path fill-rule="evenodd" clip-rule="evenodd" d="M69.6808 279.956C69.6889 279.878 69.7588 279.821 69.837 279.829L157.438 288.835C157.516 288.843 157.573 288.913 157.565 288.991C157.557 289.069 157.487 289.126 157.409 289.118L69.8079 280.112C69.7297 280.104 69.6728 280.034 69.6808 279.956Z" fill="#9CA3AF"/>
<path fill-rule="evenodd" clip-rule="evenodd" d="M70.6156 291.835C70.6281 291.757 70.7011 291.704 70.7787 291.717L171.405 307.907C171.482 307.92 171.535 307.993 171.523 308.07C171.51 308.148 171.437 308.201 171.359 308.188L70.7335 291.998C70.6559 291.986 70.6031 291.912 70.6156 291.835Z" fill="#9CA3AF"/>
<path fill-rule="evenodd" clip-rule="evenodd" d="M236.948 110.377C236.976 110.45 236.94 110.532 236.867 110.561L64.9895 177.44C64.9163 177.468 64.8338 177.432 64.8053 177.359C64.7768 177.286 64.813 177.203 64.8863 177.175L236.763 110.296C236.837 110.267 236.919 110.303 236.948 110.377Z" fill="#9CA3AF"/>
<path fill-rule="evenodd" clip-rule="evenodd" d="M164.547 141.755C164.575 141.828 164.538 141.91 164.465 141.939L123.705 157.628C123.631 157.656 123.549 157.62 123.521 157.546C123.492 157.473 123.529 157.391 123.602 157.362L164.363 141.673C164.436 141.645 164.519 141.681 164.547 141.755Z" fill="#9CA3AF"/>
<path fill-rule="evenodd" clip-rule="evenodd" d="M245.067 126.64C245.093 126.714 245.054 126.796 244.98 126.821L58.6089 191.867C58.5347 191.893 58.4535 191.854 58.4276 191.78C58.4017 191.706 58.4409 191.624 58.5151 191.599L244.886 126.553C244.96 126.527 245.041 126.566 245.067 126.64Z" fill="#9CA3AF"/>
<path fill-rule="evenodd" clip-rule="evenodd" d="M245.072 174.715C245.089 174.792 245.04 174.868 244.964 174.885L58.5927 216.135C58.516 216.152 58.44 216.103 58.423 216.026C58.406 215.95 58.4545 215.874 58.5312 215.857L244.902 174.607C244.979 174.59 245.055 174.638 245.072 174.715Z" fill="#9CA3AF"/>
<path fill-rule="evenodd" clip-rule="evenodd" d="M245.068 129.145C245.093 129.22 245.053 129.301 244.979 129.326L63.4812 191.241C63.4068 191.266 63.3259 191.227 63.3005 191.152C63.2751 191.078 63.3149 190.997 63.3893 190.971L244.887 129.057C244.962 129.031 245.042 129.071 245.068 129.145Z" fill="#9CA3AF"/>
<path fill-rule="evenodd" clip-rule="evenodd" d="M287.743 166.314C287.822 166.314 287.885 166.378 287.885 166.457V195.012C287.885 195.09 287.822 195.154 287.743 195.154C287.664 195.154 287.601 195.09 287.601 195.012V166.457C287.601 166.378 287.664 166.314 287.743 166.314Z" fill="#9CA3AF"/>
<path fill-rule="evenodd" clip-rule="evenodd" d="M190.237 188.369C190.315 188.369 190.379 188.432 190.379 188.511V207.764C190.379 207.843 190.315 207.906 190.237 207.906C190.158 207.906 190.094 207.843 190.094 207.764V188.511C190.094 188.432 190.158 188.369 190.237 188.369Z" fill="#9CA3AF"/>
<path fill-rule="evenodd" clip-rule="evenodd" d="M259.78 224.904C259.858 224.904 259.922 224.968 259.922 225.047V239.29C259.922 239.369 259.858 239.432 259.78 239.432C259.701 239.432 259.637 239.369 259.637 239.29V225.047C259.637 224.968 259.701 224.904 259.78 224.904Z" fill="#9CA3AF"/>
<path fill-rule="evenodd" clip-rule="evenodd" d="M318.006 220.715C318.084 220.715 318.148 220.779 318.148 220.858V235.739C318.148 235.817 318.084 235.881 318.006 235.881C317.927 235.881 317.863 235.817 317.863 235.739V220.858C317.863 220.779 317.927 220.715 318.006 220.715Z" fill="#9CA3AF"/>
<path fill-rule="evenodd" clip-rule="evenodd" d="M236.692 0.0642135C236.731 -0.0038143 236.818 -0.0270422 236.886 0.0123325L516.528 161.87C516.596 161.909 516.619 161.997 516.58 162.065C516.541 162.133 516.454 162.156 516.386 162.116L236.744 0.258683C236.676 0.219308 236.652 0.132241 236.692 0.0642135Z" fill="#9CA3AF"/>
<path fill-rule="evenodd" clip-rule="evenodd" d="M465.364 1.57044C465.395 1.64265 465.362 1.72635 465.289 1.7574L329.414 60.1769C329.341 60.208 329.258 60.1746 329.227 60.1024C329.196 60.0302 329.229 59.9465 329.301 59.9154L465.177 1.49591C465.249 1.46486 465.333 1.49823 465.364 1.57044Z" fill="#9CA3AF"/>
<path fill-rule="evenodd" clip-rule="evenodd" d="M260.878 89.4784C260.909 89.5506 260.876 89.6343 260.804 89.6654L236.871 99.9579C236.799 99.989 236.715 99.9556 236.684 99.8834C236.653 99.8112 236.687 99.7275 236.759 99.6965L260.691 89.4039C260.764 89.3728 260.847 89.4062 260.878 89.4784Z" fill="#9CA3AF"/>
<path fill-rule="evenodd" clip-rule="evenodd" d="M129.176 119.314C129.254 119.314 129.318 119.378 129.318 119.457V315.619C129.318 315.698 129.254 315.761 129.176 315.761C129.097 315.761 129.033 315.698 129.033 315.619V119.457C129.033 119.378 129.097 119.314 129.176 119.314Z" fill="#9CA3AF"/>
<path fill-rule="evenodd" clip-rule="evenodd" d="M217.585 47.1635C217.663 47.1635 217.727 47.2272 217.727 47.3058V58.236C217.727 58.3146 217.663 58.3783 217.585 58.3783C217.506 58.3783 217.442 58.3146 217.442 58.236V47.3058C217.442 47.2272 217.506 47.1635 217.585 47.1635Z" fill="#9CA3AF"/>
<path fill-rule="evenodd" clip-rule="evenodd" d="M263.343 17.3104C263.422 17.3104 263.486 17.3741 263.486 17.4527V35.5444C263.486 35.623 263.422 35.6867 263.343 35.6867C263.265 35.6867 263.201 35.623 263.201 35.5444V17.4527C263.201 17.3741 263.265 17.3104 263.343 17.3104Z" fill="#9CA3AF"/>
<path fill-rule="evenodd" clip-rule="evenodd" d="M39.6444 308.344C39.6506 308.423 39.5921 308.491 39.5137 308.497L0.757116 311.56C0.678759 311.566 0.610218 311.508 0.604026 311.429C0.597834 311.351 0.656335 311.282 0.734692 311.276L39.4913 308.213C39.5696 308.207 39.6382 308.266 39.6444 308.344Z" fill="#9CA3AF"/>
<path fill-rule="evenodd" clip-rule="evenodd" d="M18.4445 318.603C18.4501 318.681 18.3911 318.75 18.3127 318.755L0.756121 320.019C0.677723 320.025 0.609594 319.966 0.60395 319.887C0.598307 319.809 0.657286 319.741 0.735684 319.735L18.2923 318.471C18.3707 318.466 18.4388 318.525 18.4445 318.603Z" fill="#9CA3AF"/>
<path fill-rule="evenodd" clip-rule="evenodd" d="M335.642 356.124C335.721 356.124 335.784 356.188 335.784 356.266V439.153C335.784 439.232 335.721 439.296 335.642 439.296C335.564 439.296 335.5 439.232 335.5 439.153V356.266C335.5 356.188 335.564 356.124 335.642 356.124Z" fill="#9CA3AF"/>
<path fill-rule="evenodd" clip-rule="evenodd" d="M335.642 -0.00683594C335.721 -0.00683594 335.784 0.0568829 335.784 0.135484V51.4162C335.784 51.4948 335.721 51.5586 335.642 51.5586C335.564 51.5586 335.5 51.4948 335.5 51.4162V0.135484C335.5 0.0568829 335.564 -0.00683594 335.642 -0.00683594Z" fill="#9CA3AF"/>
<path fill-rule="evenodd" clip-rule="evenodd" d="M244.933 26.3968C245.011 26.3968 245.075 26.4605 245.075 26.5392V99.8283C245.075 99.9069 245.011 99.9706 244.933 99.9706C244.854 99.9706 244.791 99.9069 244.791 99.8283V26.5392C244.791 26.4605 244.854 26.3968 244.933 26.3968Z" fill="#9CA3AF"/>
</g>
<defs>
<clipPath id="clip0_3368_166120">
<rect width="528.782" height="446.828" fill="white" transform="translate(0.609253)"/>
</clipPath>
</defs>
</svg>
