<svg width="108" height="24" viewBox="0 0 108 24" fill="none" xmlns="http://www.w3.org/2000/svg">
<g clip-path="url(#clip0_5246_827)">
<path d="M17.0455 9.60184C18.4658 8.1816 18.4658 5.87589 17.0455 4.45559L12.5817 0H8.6713L15.0821 6.41081C15.4325 6.75308 15.4325 7.30645 15.0821 7.64668L7.16699 15.5618L15.3772 23.7721H19.2876L11.0876 15.5618L17.0455 9.60395V9.60184Z" fill="white"/>
<path d="M22.0444 15.5618L26.4261 11.1902C28.7134 8.89278 28.7134 5.16677 26.4261 2.87953L23.5487 0H19.6382L24.471 4.8327C25.6802 6.0419 25.6802 8.01558 24.471 9.22271L18.1257 15.5598L26.336 23.77H30.2464L22.0464 15.5598L22.0444 15.5618Z" fill="white"/>
<path d="M2.76681 0H0V23.77H2.76681V0Z" fill="white"/>
<path d="M34.6365 11.1388V0.616699H36.6204V5.00876H39.252L42.7115 0.616699H44.9537L41.0063 5.75887L45.5644 11.1388H43.2669L39.3134 6.52538H36.6204V11.1388H34.6365Z" fill="white"/>
<path d="M46.5295 11.1388L51.6041 0.616699H54.2008L59.2754 11.1388H57.2218L55.9695 8.4027H49.8374L48.5852 11.1388H46.5317H46.5295ZM50.4687 7.01931H55.3342L53.0654 2.04929H52.7375L50.4687 7.01931Z" fill="white"/>
<path d="M71.3286 4.01076C71.3286 4.38171 71.2707 4.70963 71.1542 4.99246C71.0371 5.27529 70.8775 5.52328 70.6742 5.73438C70.4717 5.94547 70.2298 6.12378 69.9552 6.26929C69.6785 6.4148 69.3793 6.53573 69.0534 6.62795C69.2584 6.71198 69.4346 6.80216 69.5822 6.90258C69.7298 7.00301 69.8589 7.11781 69.9675 7.24691C70.0761 7.37602 70.1704 7.52566 70.2523 7.69162C70.3344 7.85969 70.4061 8.04823 70.4717 8.26345L70.9389 9.72477C71.0229 10.0035 71.1211 10.2658 71.234 10.5118C71.3469 10.7577 71.4761 10.9667 71.6194 11.1389H69.5043C69.3834 10.9913 69.2789 10.8151 69.1908 10.6101C69.1026 10.4052 69.0247 10.1777 68.9551 9.92764L68.4529 8.36185C68.3177 7.92526 68.0697 7.60966 67.7049 7.41089C67.34 7.21409 66.8769 7.10136 66.3153 7.0727H62.8414V11.1368H60.8657V0.614746H67.379C68.6599 0.614746 69.6375 0.885281 70.3118 1.42635C70.9862 1.96741 71.3244 2.74622 71.3244 3.76071V4.01076H71.3286ZM69.3178 3.73203C69.3178 3.49429 69.287 3.27293 69.2235 3.06389C69.162 2.85484 69.0513 2.67039 68.8956 2.51053C68.7398 2.35066 68.5328 2.2236 68.2725 2.13137C68.0123 2.03914 67.6884 1.99201 67.2991 1.99201H62.8455V5.6319H66.7088C67.5675 5.6319 68.2172 5.48434 68.6579 5.18921C69.0985 4.89409 69.3199 4.45754 69.3199 3.87754V3.73203H69.3178Z" fill="white"/>
<path d="M84.3918 4.01076C84.3918 4.38171 84.3346 4.70963 84.2174 4.99246C84.1031 5.27529 83.9407 5.52328 83.7381 5.73438C83.5356 5.94547 83.2934 6.12378 83.0167 6.26929C82.74 6.4148 82.4407 6.53573 82.1146 6.62795C82.32 6.71198 82.4965 6.80216 82.644 6.90258C82.7916 7.00301 82.9207 7.11781 83.0287 7.24691C83.1374 7.37602 83.2341 7.52566 83.3139 7.69162C83.3958 7.85969 83.4678 8.04823 83.5334 8.26345L83.9986 9.72477C84.0826 10.0035 84.1807 10.2658 84.2937 10.5118C84.4066 10.7577 84.5351 10.9667 84.6791 11.1389H82.5635C82.4428 10.9913 82.3384 10.8151 82.2501 10.6101C82.1619 10.4052 82.0843 10.1777 82.0144 9.92764L81.5146 8.36185C81.3791 7.92526 81.1292 7.60966 80.7664 7.41089C80.4014 7.21409 79.9384 7.10136 79.3786 7.0727H75.905V11.1368H73.9292V0.614746H80.4445C81.7257 0.614746 82.7033 0.885281 83.3774 1.42635C84.0515 1.96741 84.3897 2.74622 84.3897 3.76071V4.01076H84.3918ZM82.3814 3.73203C82.3814 3.49429 82.3504 3.27293 82.2868 3.06389C82.2233 2.85484 82.1146 2.67039 81.9593 2.51053C81.8033 2.35066 81.5965 2.2236 81.336 2.13137C81.0755 2.03914 80.7523 1.99201 80.3626 1.99201H75.9092V5.6319H79.7725C80.6308 5.6319 81.281 5.48434 81.7214 5.18921C82.1619 4.89409 82.3814 4.45754 82.3814 3.87754V3.73203Z" fill="white"/>
<path d="M85.4556 11.1388L90.5302 0.616699H93.1271L98.2017 11.1388H96.1476L94.8953 8.4027H88.7633L87.5111 11.1388H85.4577H85.4556ZM89.3951 7.01931H94.26L91.9913 2.04929H91.6638L89.3951 7.01931Z" fill="white"/>
<path d="M103.434 2.05554V11.1389H101.45V2.05554H96.8916V0.614746H108V2.05554H103.434Z" fill="white"/>
<path d="M47.501 22.6655V16.2568H53.4363V17.3492H49.0094V18.8781H52.9997V19.9664H49.0094V21.5752H53.4609V22.6635H47.501V22.6655Z" fill="white"/>
<path d="M60.7818 20.8476C60.7818 21.1694 60.7121 21.4522 60.5728 21.6961C60.4333 21.94 60.2264 22.1429 59.9517 22.3069C59.6771 22.4688 59.3389 22.5917 58.9352 22.6757C58.5314 22.7598 58.0662 22.8008 57.5415 22.8008C57.0169 22.8008 56.5167 22.7434 56.1007 22.6306C55.6847 22.518 55.3384 22.3622 55.0555 22.1675C54.7727 21.9728 54.5636 21.7412 54.4201 21.4748C54.2767 21.2104 54.207 20.9255 54.207 20.6242H55.6601C55.6621 20.7513 55.6929 20.8825 55.7482 21.0157C55.8035 21.1489 55.904 21.2719 56.0454 21.3825C56.1868 21.4932 56.3774 21.5834 56.6213 21.6531C56.8652 21.7227 57.1746 21.7597 57.5538 21.7597C57.8592 21.7597 58.1195 21.7371 58.3326 21.6941C58.5479 21.651 58.722 21.5895 58.8573 21.5117C58.9926 21.4337 59.091 21.3436 59.1524 21.2391C59.2119 21.1345 59.2426 21.0218 59.2426 20.9009C59.2426 20.6672 59.1443 20.491 58.9475 20.3721C58.7507 20.2532 58.4597 20.161 58.0765 20.0975L56.3488 19.7881C55.6744 19.6671 55.1785 19.4581 54.867 19.165C54.5533 18.8719 54.3976 18.4805 54.3976 17.9906C54.3976 17.8349 54.4201 17.6811 54.4632 17.5275C54.5063 17.3737 54.578 17.2282 54.6743 17.0888C54.7727 16.9515 54.8997 16.8224 55.0576 16.7036C55.2153 16.5847 55.408 16.4822 55.6355 16.3982C55.863 16.3141 56.1274 16.2465 56.4307 16.1973C56.734 16.1481 57.0783 16.1235 57.4677 16.1235C58.0191 16.1235 58.4925 16.1768 58.8901 16.2834C59.2877 16.3899 59.6156 16.5355 59.8739 16.722C60.1341 16.9085 60.3288 17.1298 60.46 17.384C60.5912 17.6381 60.669 17.9168 60.6916 18.2161H59.3328C59.3102 18.0685 59.2652 17.9312 59.1975 17.8041C59.1299 17.677 59.0254 17.5643 58.886 17.4721C58.7466 17.3799 58.5622 17.3061 58.3347 17.2508C58.1072 17.1975 57.8223 17.1709 57.4821 17.1709C57.1767 17.1709 56.9246 17.1954 56.7258 17.2467C56.5271 17.2979 56.3692 17.3635 56.2544 17.4434C56.1376 17.5234 56.0577 17.6115 56.0126 17.7078C55.9675 17.8041 55.945 17.8964 55.945 17.9865C55.945 18.0972 55.9655 18.1935 56.0065 18.2796C56.0474 18.3637 56.1131 18.4395 56.2012 18.5009C56.2914 18.5645 56.404 18.6178 56.5455 18.6629C56.6848 18.7059 56.8529 18.7448 57.0476 18.7756L58.6278 19.042C58.9946 19.1076 59.3143 19.1896 59.5828 19.2879C59.8513 19.3863 60.0767 19.5093 60.255 19.6548C60.4333 19.8003 60.5665 19.9705 60.6527 20.1672C60.7408 20.3639 60.7838 20.5914 60.7838 20.8517L60.7818 20.8476Z" fill="white"/>
<path d="M65.2599 17.3492V22.6655H63.7352V17.3492H61.0708V16.2568H67.9202V17.3492H65.2599Z" fill="white"/>
<path d="M67.1189 22.6655L70.1357 16.2568H72.1137L75.1307 22.6655H73.5544L72.8987 21.1653H69.3528L68.6949 22.6655H67.1189ZM69.8099 20.1201H72.4413L71.23 17.341H71.0274L69.8119 20.1201H69.8099Z" fill="white"/>
<path d="M78.5019 17.3492V22.6655H76.9772V17.3492H74.3125V16.2568H81.1617V17.3492H78.5019Z" fill="white"/>
<path d="M82.0305 22.6655V16.2568H87.9663V17.3492H83.539V18.8781H87.5293V19.9664H83.539V21.5752H87.991V22.6635H82.0305V22.6655Z" fill="white"/>
<path d="M95.3116 20.8476C95.3116 21.1694 95.2418 21.4522 95.1027 21.6961C94.9629 21.94 94.7561 22.1429 94.4815 22.3069C94.2069 22.4688 93.8688 22.5917 93.4651 22.6757C93.0613 22.7598 92.5961 22.8008 92.0709 22.8008C91.5465 22.8008 91.0467 22.7434 90.6302 22.6306C90.2145 22.518 89.8679 22.3622 89.5855 22.1675C89.3025 21.9728 89.0935 21.7412 88.9495 21.4748C88.8062 21.2104 88.7371 20.9255 88.7371 20.6242H90.1898C90.1919 20.7513 90.2229 20.8825 90.278 21.0157C90.3331 21.1489 90.434 21.2719 90.5752 21.3825C90.7164 21.4932 90.9069 21.5834 91.1512 21.6531C91.3947 21.7227 91.7046 21.7597 92.0836 21.7597C92.3886 21.7597 92.6491 21.7371 92.8622 21.6941C93.0775 21.651 93.2519 21.5895 93.3867 21.5117C93.5222 21.4337 93.6204 21.3436 93.6825 21.2391C93.7418 21.1345 93.7721 21.0218 93.7721 20.9009C93.7721 20.6672 93.674 20.491 93.4771 20.3721C93.2801 20.2532 92.9893 20.161 92.606 20.0975L90.8787 19.7881C90.2039 19.6671 89.7084 19.4581 89.3964 19.165C89.0829 18.8719 88.9277 18.4805 88.9277 17.9906C88.9277 17.8349 88.9495 17.6811 88.9926 17.5275C89.0356 17.3737 89.1077 17.2282 89.2037 17.0888C89.3025 16.9515 89.4295 16.8224 89.5869 16.7036C89.7451 16.5847 89.9378 16.4822 90.1651 16.3982C90.3924 16.3141 90.6571 16.2465 90.9606 16.1973C91.2634 16.1481 91.6079 16.1235 91.9975 16.1235C92.5488 16.1235 93.0225 16.1768 93.4199 16.2834C93.8173 16.3899 94.1455 16.5355 94.4039 16.722C94.6636 16.9085 94.8585 17.1298 94.9898 17.384C95.1211 17.6381 95.1987 17.9168 95.2213 18.2161H93.8625C93.8399 18.0685 93.7947 17.9312 93.7269 17.8041C93.6599 17.677 93.5554 17.5643 93.4157 17.4721C93.2766 17.3799 93.0916 17.3061 92.8644 17.2508C92.6371 17.1975 92.3519 17.1709 92.0117 17.1709C91.7067 17.1709 91.454 17.1954 91.2557 17.2467C91.0566 17.2979 90.8992 17.3635 90.7841 17.4434C90.6676 17.5234 90.5872 17.6115 90.542 17.7078C90.4975 17.8041 90.4749 17.8964 90.4749 17.9865C90.4749 18.0972 90.4954 18.1935 90.5364 18.2796C90.5773 18.3637 90.6429 18.4395 90.7312 18.5009C90.8208 18.5645 90.9338 18.6178 91.0749 18.6629C91.2147 18.7059 91.3827 18.7448 91.5775 18.7756L93.1573 19.042C93.5244 19.1076 93.8441 19.1896 94.1124 19.2879C94.3813 19.3863 94.6065 19.5093 94.7851 19.6548C94.9629 19.8003 95.0964 19.9705 95.1825 20.1672C95.2707 20.3639 95.3138 20.5914 95.3138 20.8517L95.3116 20.8476Z" fill="white"/>
</g>
<defs>
<clipPath id="clip0_5246_827">
<rect width="108" height="24" fill="white"/>
</clipPath>
</defs>
</svg>
