<svg width="20" height="20" viewBox="0 0 20 20" fill="none" xmlns="http://www.w3.org/2000/svg">
<g clip-path="url(#clip0_5430_4639)">
<path d="M10 20C15.5417 20 20 15.5417 20 10C20 4.4583 15.5417 0 10 0C4.4583 0 0 4.4583 0 10C0 15.5417 4.4583 20 10 20Z" fill="#2775CA"/>
<path d="M12.75 11.5835C12.75 10.1252 11.875 9.6252 10.125 9.4169C8.87505 9.2502 8.62505 8.9169 8.62505 8.3335C8.62505 7.7501 9.04175 7.3752 9.87505 7.3752C10.625 7.3752 11.0417 7.6252 11.25 8.2502C11.2917 8.3752 11.4167 8.4585 11.5417 8.4585H12.2083C12.375 8.4585 12.5 8.3335 12.5 8.1669V8.1252C12.3333 7.2085 11.5833 6.5002 10.625 6.4169V5.4169C10.625 5.2502 10.5 5.1252 10.2917 5.0835H9.66675C9.50005 5.0835 9.37505 5.2085 9.33335 5.4169V6.3752C8.08335 6.5419 7.29175 7.3752 7.29175 8.4169C7.29175 9.7919 8.12505 10.3335 9.87505 10.5419C11.0417 10.7502 11.4167 11.0002 11.4167 11.6669C11.4167 12.3336 10.8333 12.7919 10.0417 12.7919C8.95835 12.7919 8.58335 12.3335 8.45835 11.7085C8.41675 11.5419 8.29175 11.4585 8.16675 11.4585H7.45835C7.29175 11.4585 7.16675 11.5835 7.16675 11.7502V11.7919C7.33335 12.8335 8.00005 13.5835 9.37505 13.7919V14.7919C9.37505 14.9585 9.50005 15.0835 9.70835 15.1252H10.3333C10.5 15.1252 10.625 15.0002 10.6667 14.7919V13.7919C11.9167 13.5835 12.75 12.7085 12.75 11.5835Z" fill="white"/>
<path d="M7.87508 15.9581C4.62508 14.7915 2.95838 11.1665 4.16678 7.9581C4.79178 6.2081 6.16678 4.8748 7.87508 4.2498C8.04178 4.1665 8.12508 4.0415 8.12508 3.8331V3.2498C8.12508 3.0831 8.04178 2.9581 7.87508 2.9165C7.83338 2.9165 7.75008 2.9165 7.70838 2.9581C3.75008 4.2081 1.58338 8.4165 2.83338 12.3748C3.58338 14.7081 5.37508 16.4998 7.70838 17.2498C7.87508 17.3331 8.04178 17.2498 8.08338 17.0831C8.12508 17.0415 8.12508 16.9998 8.12508 16.9165V16.3331C8.12508 16.2081 8.00008 16.0415 7.87508 15.9581ZM12.2918 2.9581C12.1251 2.8748 11.9584 2.9581 11.9168 3.1248C11.8751 3.1665 11.8751 3.2081 11.8751 3.2915V3.8748C11.8751 4.0415 12.0001 4.2081 12.1251 4.2915C15.3751 5.4581 17.0418 9.0831 15.8334 12.2915C15.2084 14.0415 13.8334 15.3748 12.1251 15.9998C11.9584 16.0831 11.8751 16.2081 11.8751 16.4165V16.9998C11.8751 17.1665 11.9584 17.2915 12.1251 17.3331C12.1668 17.3331 12.2501 17.3331 12.2918 17.2915C16.2501 16.0415 18.4168 11.8331 17.1668 7.8748C16.4168 5.4998 14.5834 3.7081 12.2918 2.9581Z" fill="white"/>
</g>
<defs>
<clipPath id="clip0_5430_4639">
<rect width="20" height="20" fill="white"/>
</clipPath>
</defs>
</svg>
