<svg width="20" height="20" viewBox="0 0 20 20" fill="none" xmlns="http://www.w3.org/2000/svg">
<g clip-path="url(#clip0_5430_4627)">
<path d="M10 20C15.5228 20 20 15.5228 20 10C20 4.47715 15.5228 0 10 0C4.47715 0 0 4.47715 0 10C0 15.5228 4.47715 20 10 20Z" fill="#009393"/>
<path fill-rule="evenodd" clip-rule="evenodd" d="M10.0122 10.7147C11.732 10.7147 13.1692 10.424 13.5205 10.0355C13.2222 9.70598 12.1435 9.44648 10.7735 9.37548V10.1962C10.5282 10.209 10.2732 10.2152 10.012 10.2152C9.75071 10.2152 9.49571 10.209 9.24996 10.1962V9.37548C7.88046 9.44648 6.80121 9.70598 6.50296 10.0355C6.85471 10.424 8.29221 10.7147 10.012 10.7147H10.0122ZM13.0677 6.85148V7.98173H10.7735V8.76548C12.385 8.84923 13.5942 9.19373 13.6032 9.60598V10.4655C13.5942 10.8777 12.385 11.2215 10.7735 11.3055V13.229H9.25021V11.3055C7.63871 11.2217 6.42996 10.8777 6.42096 10.4655V9.60598C6.42996 9.19373 7.63871 8.84923 9.25021 8.76548V7.98173H6.95596V6.85148H13.068H13.0677ZM6.05371 5.05273H14.1077C14.3002 5.05273 14.4775 5.15398 14.5735 5.31848L16.9197 9.34748C17.0412 9.55648 17.0052 9.82023 16.8317 9.98948L10.3732 16.294C10.1637 16.4982 9.82721 16.4982 9.61821 16.294L3.16771 9.99798C2.99046 9.82448 2.95696 9.55323 3.08771 9.34323L5.59596 5.30598C5.69371 5.14898 5.86721 5.05298 6.05396 5.05298L6.05371 5.05273Z" fill="white"/>
</g>
<defs>
<clipPath id="clip0_5430_4627">
<rect width="20" height="20" fill="white"/>
</clipPath>
</defs>
</svg>
