<svg width="22" height="23" viewBox="0 0 22 23" fill="none" xmlns="http://www.w3.org/2000/svg">
<path d="M17.9308 5.0716C16.6341 4.48592 15.2657 4.06828 13.8599 3.82914C13.8471 3.82681 13.8339 3.82851 13.8222 3.83399C13.8104 3.83946 13.8007 3.84844 13.7945 3.85964C13.6187 4.16723 13.4239 4.56869 13.2876 4.88415C11.7503 4.65764 10.221 4.65764 8.71526 4.88415C8.57886 4.56161 8.37706 4.16723 8.20046 3.85964C8.19392 3.84867 8.18418 3.83989 8.17249 3.83445C8.16081 3.82901 8.14773 3.82716 8.13496 3.82914C6.72896 4.0678 5.36051 4.48546 4.06405 5.0716C4.05295 5.07623 4.04359 5.08414 4.03725 5.09423C1.44444 8.90573 0.734238 12.6236 1.08264 16.2953C1.08361 16.3043 1.08641 16.3131 1.09088 16.321C1.09534 16.3289 1.10139 16.3358 1.10864 16.3414C2.81924 17.5775 4.47635 18.328 6.10265 18.8254C6.1153 18.8291 6.12881 18.829 6.14135 18.8249C6.1539 18.8209 6.16489 18.8131 6.17285 18.8028C6.55755 18.2858 6.90045 17.7408 7.19456 17.1676C7.19861 17.1598 7.20092 17.1512 7.20134 17.1424C7.20176 17.1336 7.20029 17.1248 7.19701 17.1166C7.19373 17.1084 7.18872 17.101 7.18232 17.0949C7.17591 17.0887 7.16826 17.084 7.15985 17.0809C6.61585 16.8778 6.09795 16.6304 5.59975 16.3493C5.59068 16.344 5.58306 16.3366 5.57756 16.3278C5.57207 16.3189 5.56887 16.3089 5.56825 16.2986C5.56763 16.2882 5.5696 16.2779 5.57399 16.2685C5.57839 16.259 5.58507 16.2508 5.59345 16.2446C5.69855 16.1673 5.80184 16.0876 5.90325 16.0057C5.91213 15.9984 5.92288 15.9938 5.9343 15.9923C5.94571 15.9907 5.95733 15.9924 5.96785 15.997C9.24106 17.4674 12.7846 17.4674 16.0191 15.997C16.0296 15.9921 16.0414 15.9902 16.053 15.9916C16.0646 15.993 16.0755 15.9976 16.0846 16.0049C16.1861 16.0873 16.2896 16.1672 16.3952 16.2446C16.4036 16.2508 16.4103 16.2589 16.4148 16.2683C16.4193 16.2777 16.4213 16.288 16.4208 16.2984C16.4202 16.3087 16.4171 16.3187 16.4117 16.3276C16.4063 16.3365 16.3987 16.3439 16.3897 16.3493C15.8912 16.6357 15.369 16.8802 14.8288 17.0802C14.8204 17.0833 14.8128 17.0882 14.8064 17.0944C14.8001 17.1007 14.7951 17.1082 14.7919 17.1164C14.7887 17.1247 14.7873 17.1335 14.7878 17.1423C14.7884 17.1512 14.7908 17.1598 14.7949 17.1676C15.0941 17.7362 15.4353 18.2825 15.8157 18.802C15.8234 18.8126 15.8344 18.8206 15.847 18.8248C15.8595 18.829 15.8732 18.8292 15.8859 18.8254C17.5201 18.328 19.1772 17.5775 20.8879 16.3414C20.8952 16.3361 20.9013 16.3293 20.9058 16.3215C20.9103 16.3137 20.913 16.305 20.9139 16.2961C21.3309 12.0512 20.2154 8.36376 17.9568 5.09502C17.9512 5.0844 17.942 5.07608 17.9308 5.0716ZM7.68336 14.0597C6.69785 14.0597 5.88585 13.1695 5.88585 12.0762C5.88585 10.9829 6.68215 10.0927 7.68336 10.0927C8.69236 10.0927 9.49646 10.9908 9.48066 12.0762C9.48066 13.1695 8.68446 14.0597 7.68336 14.0597ZM14.329 14.0597C13.3435 14.0597 12.5316 13.1695 12.5316 12.0762C12.5316 10.9829 13.3278 10.0927 14.329 10.0927C15.338 10.0927 16.1421 10.9908 16.1264 12.0762C16.1264 13.1695 15.338 14.0597 14.329 14.0597Z" fill="currentColor"/>
</svg>
