<svg width="37" height="38" viewBox="0 0 37 38" fill="none" xmlns="http://www.w3.org/2000/svg">
<path fill-rule="evenodd" clip-rule="evenodd" d="M18.2685 9.10742C18.5446 9.10742 18.7685 9.33128 18.7685 9.60742V22.3031L22.5492 18.5224C22.7444 18.3271 23.061 18.3271 23.2563 18.5224C23.4516 18.7176 23.4516 19.0342 23.2563 19.2295L18.622 23.8637C18.4268 24.059 18.1102 24.059 17.9149 23.8637L13.2807 19.2295C13.0854 19.0342 13.0854 18.7176 13.2807 18.5224C13.476 18.3271 13.7925 18.3271 13.9878 18.5224L17.7685 22.3031V9.60742C17.7685 9.33128 17.9924 9.10742 18.2685 9.10742ZM9 23.0102C9.27614 23.0102 9.5 23.234 9.5 23.5102V24.6687C9.5 25.4579 9.81351 26.2148 10.3716 26.7729C10.9296 27.3309 11.6865 27.6444 12.4757 27.6444H24.0613C24.8505 27.6444 25.6074 27.3309 26.1654 26.7729C26.7235 26.2148 27.037 25.4579 27.037 24.6687V23.5102C27.037 23.234 27.2608 23.0102 27.537 23.0102C27.8131 23.0102 28.037 23.234 28.037 23.5102V24.6687C28.037 25.7231 27.6181 26.7344 26.8725 27.48C26.127 28.2255 25.1157 28.6444 24.0613 28.6444H12.4757C11.4213 28.6444 10.41 28.2255 9.66445 27.48C8.91887 26.7344 8.5 25.7231 8.5 24.6687V23.5102C8.5 23.234 8.72386 23.0102 9 23.0102Z" fill="currentColor"/>
<path fill-rule="evenodd" clip-rule="evenodd" d="M31.6074 1.60742H5.39258C2.96662 1.60742 1 3.57405 1 6V32.2148C1 34.6408 2.96662 36.6074 5.39258 36.6074H31.6074C34.0334 36.6074 36 34.6408 36 32.2148V6C36 3.57405 34.0334 1.60742 31.6074 1.60742ZM5.39258 0.607422C2.41434 0.607422 0 3.02176 0 6V32.2148C0 35.1931 2.41434 37.6074 5.39258 37.6074H31.6074C34.5857 37.6074 37 35.1931 37 32.2148V6C37 3.02176 34.5857 0.607422 31.6074 0.607422H5.39258Z" fill="currentColor"/>
</svg>
