<svg width="23" height="23" viewBox="0 0 23 23" fill="none" xmlns="http://www.w3.org/2000/svg">
<path d="M15.4615 8.25V6.625C15.4615 6.19402 15.2995 5.7807 15.0109 5.47595C14.7224 5.1712 14.3311 5 13.9231 5H6.53846C6.13044 5 5.73912 5.1712 5.4506 5.47595C5.16209 5.7807 5 6.19402 5 6.625V16.375C5 16.806 5.16209 17.2193 5.4506 17.524C5.73912 17.8288 6.13044 18 6.53846 18H13.9231C14.3311 18 14.7224 17.8288 15.0109 17.524C15.2995 17.2193 15.4615 16.806 15.4615 16.375V14.75M17.9231 8.25L21 11.5M21 11.5L17.9231 14.75M21 11.5H10.5" stroke="#9CA3AF" stroke-linecap="round" stroke-linejoin="round"/>
</svg>
