<svg width="16" height="17" viewBox="0 0 16 17" fill="none" xmlns="http://www.w3.org/2000/svg">
<path d="M14.5455 3.1377H1.45453C0.651219 3.1377 0 3.78891 0 4.59226V13.3195C0 14.1229 0.651219 14.7741 1.45453 14.7741H14.5454C15.3487 14.7741 16 14.1229 16 13.3195V4.59226C16 3.78891 15.3488 3.1377 14.5455 3.1377ZM1.45453 3.86498H14.5454C14.6285 3.86551 14.7109 3.88026 14.7891 3.9086L8.49453 10.2032C8.22419 10.4753 7.78444 10.4767 7.51231 10.2064C7.51125 10.2053 7.51016 10.2042 7.50909 10.2032L1.21091 3.9086C1.28903 3.88026 1.37144 3.86548 1.45453 3.86498ZM0.727281 13.3195V4.59226C0.723562 4.54991 0.723562 4.50732 0.727281 4.46498L5.22909 8.95588L0.727281 13.4468C0.723562 13.4044 0.723562 13.3619 0.727281 13.3195ZM14.5455 14.0468H1.45453C1.37144 14.0463 1.28903 14.0315 1.21091 14.0032L5.74544 9.46863L6.99272 10.7159C7.54694 11.2722 8.44716 11.2739 9.00347 10.7197C9.00475 10.7184 9.006 10.7172 9.00725 10.7159L10.2545 9.46863L14.7891 14.0032C14.711 14.0315 14.6286 14.0463 14.5455 14.0468ZM15.2727 13.4468L10.7709 8.95588L15.2727 4.46498C15.2764 4.50732 15.2764 4.54991 15.2727 4.59226V13.3195C15.2764 13.3619 15.2764 13.4044 15.2727 13.4468Z" fill="currentColor"/>
</svg>
