<svg width="20" height="21" viewBox="0 0 20 21" fill="none" xmlns="http://www.w3.org/2000/svg">
<g clip-path="url(#clip0_3494_3818)">
<path d="M10 0.956055C5.92615 0.956055 2.61194 4.27027 2.61194 8.34415C2.61194 9.6853 3.21342 11.1277 3.23862 11.1886C3.43289 11.6497 3.8162 12.3659 4.0926 12.7857L9.15822 20.4611C9.36552 20.7757 9.67235 20.9561 10 20.9561C10.3277 20.9561 10.6345 20.7757 10.8418 20.4615L15.9079 12.7857C16.1847 12.3659 16.5676 11.6497 16.7619 11.1886C16.7871 11.1282 17.3881 9.68574 17.3881 8.34415C17.3881 4.27027 14.0739 0.956055 10 0.956055ZM15.9605 10.8513C15.7871 11.2646 15.4303 11.9308 15.1821 12.3072L10.1161 19.983C10.0161 20.1347 9.98439 20.1347 9.88443 19.983L4.81837 12.3072C4.57022 11.9308 4.21342 11.2642 4.04001 10.8509C4.03262 10.8331 3.48113 9.50538 3.48113 8.34415C3.48113 4.74962 6.40551 1.82524 10 1.82524C13.5946 1.82524 16.5189 4.74962 16.5189 8.34415C16.5189 9.50712 15.9661 10.8383 15.9605 10.8513Z" fill="currentColor"/>
<path d="M10.0001 4.43359C7.8432 4.43359 6.08875 6.18848 6.08875 8.34494C6.08875 10.5014 7.8432 12.2563 10.0001 12.2563C12.157 12.2563 13.9114 10.5014 13.9114 8.34494C13.9114 6.18848 12.157 4.43359 10.0001 4.43359ZM10.0001 11.3871C8.32299 11.3871 6.95793 10.0225 6.95793 8.34494C6.95793 6.6674 8.32299 5.30278 10.0001 5.30278C11.6772 5.30278 13.0422 6.6674 13.0422 8.34494C13.0422 10.0225 11.6772 11.3871 10.0001 11.3871Z" fill="currentColor"/>
</g>
<defs>
<clipPath id="clip0_3494_3818">
<rect width="20" height="20" fill="currentColor" transform="translate(0 0.956055)"/>
</clipPath>
</defs>
</svg>
