<svg width="16" height="17" viewBox="0 0 16 17" fill="none" xmlns="http://www.w3.org/2000/svg">
<path fill-rule="evenodd" clip-rule="evenodd" d="M0.965708 2.24416C-0.0538213 3.26405 -0.292631 4.82806 0.3764 6.1055C0.3764 6.10624 0.376762 6.10661 0.377129 6.10734C1.32391 7.88849 2.85523 10.5011 4.65512 12.3009C6.45573 14.1019 9.06977 15.6336 10.8608 16.5631C12.1295 17.2274 13.6839 16.9904 14.6976 15.9768C15.0547 15.6472 15.4037 15.2982 15.6771 15.0248C15.8839 14.8184 16 14.538 16 14.2456C16 13.9531 15.8835 13.6728 15.6771 13.4663C14.9779 12.7672 13.7412 11.5305 13.0421 10.8313C12.8356 10.6249 12.5553 10.5084 12.2628 10.5084C11.9704 10.5084 11.6901 10.6245 11.4836 10.8313L9.99709 12.3178C9.97908 12.3358 9.953 12.3432 9.92838 12.3373C9.42137 12.1264 8.25047 11.5507 7.01161 10.3118C5.73012 9.03036 4.94169 7.60779 4.64556 7.01922C4.63344 6.99056 4.63969 6.95934 4.66026 6.93839C4.66063 6.93839 4.66062 6.93803 4.66099 6.93766C4.99937 6.59819 5.65922 5.93797 6.12471 5.47248C6.33155 5.266 6.44765 4.98568 6.44765 4.69323C6.44765 4.40078 6.33119 4.12045 6.12471 3.91397C5.42555 3.21482 4.18889 1.97816 3.48973 1.279C3.28325 1.07252 3.00293 0.956055 2.71048 0.956055C2.41803 0.956055 2.1377 1.07252 1.93123 1.279L0.965708 2.24416ZM1.48521 2.76402L2.45073 1.7985C2.51943 1.72979 2.61312 1.69085 2.71048 1.69085C2.80784 1.69085 2.90153 1.72979 2.97023 1.7985L5.60521 4.43348C5.67391 4.50218 5.71285 4.59587 5.71285 4.69323C5.71285 4.79059 5.67391 4.88427 5.60521 4.95298C5.13935 5.41884 4.47876 6.07942 4.14039 6.41963C3.90011 6.65954 3.83619 7.0251 3.98094 7.33298C3.98241 7.33592 3.98388 7.3385 3.98535 7.34143C4.29543 7.9594 5.1309 9.4705 6.49211 10.8313C7.8423 12.1815 9.12084 12.7988 9.65871 13.0214C9.66495 13.024 9.6712 13.0262 9.67781 13.0284C9.971 13.1313 10.2972 13.057 10.5169 12.837C10.5169 12.8373 12.0031 11.3508 12.0031 11.3508C12.0718 11.2821 12.1655 11.2432 12.2628 11.2432C12.3602 11.2432 12.4539 11.2821 12.5226 11.3508L15.1576 13.9858C15.2263 14.0545 15.2652 14.1482 15.2652 14.2456C15.2652 14.3429 15.2263 14.4366 15.1576 14.5053C14.8886 14.7743 14.5451 15.1178 14.1891 15.447C14.1854 15.4503 14.1817 15.4536 14.1784 15.4569C13.3922 16.2435 12.1857 16.4276 11.2007 15.9114C11.2003 15.9114 11.1999 15.911 11.1996 15.911C9.46178 15.009 6.9216 13.5284 5.17462 11.7814C3.42691 10.0337 1.94592 7.49317 1.02669 5.76383C0.50719 4.77112 0.693099 3.55613 1.48521 2.76402Z" fill="currentColor"/>
</svg>
