<svg width="25" height="25" viewBox="0 0 25 25" fill="none" xmlns="http://www.w3.org/2000/svg">
<path d="M20.95 11.9496C20.8 8.8996 18.95 6.0496 16.2 4.7496C13.2 3.3996 9.54999 3.9496 7.04999 6.0496C4.64999 8.0496 3.54999 11.2996 4.24999 14.3496C4.89999 17.3496 7.24999 19.7996 10.2 20.5996C13.75 21.5996 17 19.8996 19 16.9996C17.2 19.3996 14.45 20.9996 11.4 20.4496C8.34999 19.8996 5.84999 17.5996 5.14999 14.5996C4.39999 11.3996 5.89999 8.0496 8.74999 6.3996C11.7 4.6996 15.85 5.3496 17.8 8.2496C18.3 8.9496 18.65 9.7996 18.8 10.6496C18.95 11.3496 18.9 12.0996 19 12.7996C19.1 13.4496 19.65 14.2996 20.4 13.8496C21.05 13.4496 21 12.5996 20.95 11.9496C21 12.2996 20.95 11.7496 20.95 11.9496Z" fill="currentColor"/>
</svg>
