<svg width="22" height="23" viewBox="0 0 22 23" fill="none" xmlns="http://www.w3.org/2000/svg">
<path d="M1.80596 10.7161C6.9072 8.45834 10.308 6.96974 12.0084 6.25057C16.8691 4.19698 17.8779 3.84031 18.5367 3.82823C18.6816 3.82587 19.0042 3.86226 19.2147 4.03517C19.3896 4.18101 19.4388 4.37823 19.4634 4.5167C19.4853 4.65503 19.5154 4.97031 19.4908 5.21641C19.2283 8.02751 18.0884 14.8491 17.5088 17.9977C17.2655 19.3299 16.7816 19.7766 16.3141 19.8202C15.2972 19.9152 14.5262 19.138 13.5421 18.4827C12.003 17.4569 11.1336 16.8186 9.63824 15.8177C7.91049 14.6611 9.03134 14.0252 10.0155 12.9864C10.2725 12.7144 14.7504 8.57694 14.8352 8.20167C14.8461 8.15473 14.857 7.97973 14.7531 7.88751C14.652 7.79501 14.5016 7.82667 14.3923 7.85167C14.2365 7.88723 11.7788 9.53944 7.01108 12.808C6.31396 13.2952 5.68246 13.5327 5.11384 13.5202C4.49053 13.5066 3.28767 13.1614 2.39372 12.8664C1.30021 12.5044 0.428136 12.313 0.504681 11.6983C0.542954 11.3783 0.977625 11.0508 1.80596 10.7161Z" fill="currentColor"/>
</svg>
