<svg width="16" height="17" viewBox="0 0 16 17" fill="none" xmlns="http://www.w3.org/2000/svg">
<path d="M14.8431 1.72594C14.6533 1.56803 14.4242 1.46454 14.1803 1.42648C13.9363 1.38842 13.6866 1.41721 13.4577 1.5098L1.51041 6.33337C1.25491 6.43849 1.03743 6.61883 0.886814 6.85045C0.736203 7.08207 0.659593 7.35401 0.667151 7.63019C0.67471 7.90636 0.766079 8.17371 0.929133 8.39675C1.09219 8.61978 1.31921 8.78795 1.58008 8.87894L3.99675 9.71943L5.34375 14.1739C5.36205 14.2334 5.38862 14.29 5.42267 14.3421C5.42783 14.3501 5.43512 14.3561 5.44061 14.3638C5.47995 14.4187 5.52749 14.4672 5.58157 14.5077C5.59695 14.5194 5.61167 14.5304 5.62811 14.5408C5.6914 14.5828 5.76149 14.6135 5.83527 14.6315L5.84316 14.6322L5.84763 14.6341C5.89199 14.6432 5.93714 14.6477 5.9824 14.6478C5.98675 14.6478 5.99062 14.6457 5.99493 14.6456C6.06324 14.6444 6.13095 14.6327 6.19566 14.6108C6.21071 14.6056 6.22361 14.5971 6.23822 14.5909C6.28647 14.5709 6.33219 14.5452 6.37441 14.5145C6.40823 14.486 6.44206 14.4575 6.47589 14.429L8.27733 12.4401L10.9642 14.5215C11.2007 14.7057 11.4919 14.8058 11.7917 14.806C12.1058 14.8056 12.4102 14.6972 12.6539 14.499C12.8976 14.3008 13.0658 14.0249 13.1302 13.7175L15.3053 3.03975C15.3546 2.79943 15.3377 2.55023 15.2562 2.31881C15.1748 2.08739 15.032 1.88246 14.8431 1.72594ZM6.24675 9.93167C6.15431 10.0237 6.09112 10.1411 6.06511 10.2689L5.85877 11.2716L5.33606 9.54287L8.04623 8.13157L6.24675 9.93167ZM11.7813 13.4675L8.60612 11.0078C8.47328 10.9052 8.30664 10.8563 8.13941 10.8711C7.97218 10.8858 7.81664 10.963 7.70377 11.0872L7.12683 11.724L7.33073 10.7331L12.0527 6.01108C12.1654 5.89852 12.2341 5.74932 12.2463 5.5905C12.2585 5.43167 12.2134 5.27374 12.1192 5.14529C12.025 5.01685 11.8879 4.92639 11.7327 4.89031C11.5776 4.85422 11.4147 4.87489 11.2734 4.94858L4.49658 8.477L2.01367 7.5684L13.9993 2.77345L11.7813 13.4675Z" fill="currentColor"/>
</svg>
