<svg width="18" height="19" viewBox="0 0 18 19" fill="none" xmlns="http://www.w3.org/2000/svg">
<path d="M5.97375 4.75892C5.83436 4.73863 5.69223 4.76669 5.571 4.83842H5.5605C5.27925 5.00342 5.02575 5.21117 4.80975 5.45567C4.62975 5.66342 4.53225 5.87342 4.50675 6.07592C4.49175 6.19592 4.50225 6.31742 4.5375 6.43217L4.551 6.43967C4.7535 7.03442 5.0175 7.60667 5.34 8.14517C5.75584 8.90154 6.26757 9.60107 6.8625 10.2264L6.8805 10.2519L6.909 10.2729L6.92625 10.2932L6.94725 10.3112C7.5748 10.9079 8.27597 11.4221 9.03375 11.8412C9.9 12.3129 10.4258 12.5357 10.7415 12.6287V12.6332C10.8338 12.6617 10.9178 12.6744 11.0025 12.6744C11.2714 12.6546 11.5259 12.5452 11.7255 12.3639C11.9693 12.1479 12.1755 11.8937 12.336 11.6109V11.6057C12.4868 11.3207 12.4358 11.0522 12.2183 10.8699C11.7814 10.4882 11.309 10.1492 10.8075 9.85742C10.4715 9.67517 10.1303 9.78542 9.99225 9.96992L9.6975 10.3419C9.546 10.5264 9.2715 10.5009 9.2715 10.5009L9.264 10.5054C7.21575 9.98267 6.669 7.90892 6.669 7.90892C6.669 7.90892 6.6435 7.62692 6.83325 7.48292L7.20225 7.18592C7.37925 7.04192 7.50225 6.70142 7.3125 6.36542C7.02271 5.86349 6.68433 5.39123 6.30225 4.95542C6.21892 4.85286 6.10205 4.783 5.97225 4.75817L5.97375 4.75892ZM9.435 3.85742C9.33555 3.85742 9.24016 3.89693 9.16984 3.96726C9.09951 4.03758 9.06 4.13297 9.06 4.23242C9.06 4.33188 9.09951 4.42726 9.16984 4.49759C9.24016 4.56791 9.33555 4.60742 9.435 4.60742C10.383 4.60742 11.1705 4.91717 11.7938 5.51117C12.114 5.83592 12.3638 6.22067 12.5273 6.64217C12.6915 7.06442 12.7665 7.51517 12.747 7.96667C12.7428 8.06613 12.7783 8.16317 12.8457 8.23645C12.9131 8.30973 13.0068 8.35324 13.1063 8.35742C13.2057 8.3616 13.3027 8.3261 13.376 8.25872C13.4493 8.19135 13.4928 8.09763 13.497 7.99817C13.5203 7.44279 13.4281 6.88861 13.2263 6.37067C13.0236 5.85027 12.7162 5.37701 12.3233 4.98017L12.3158 4.97267C11.5425 4.23392 10.5645 3.85742 9.435 3.85742Z" fill="currentColor"/>
<path d="M9.40875 5.09059C9.3093 5.09059 9.21391 5.1301 9.14359 5.20043C9.07326 5.27075 9.03375 5.36614 9.03375 5.46559C9.03375 5.56505 9.07326 5.66043 9.14359 5.73076C9.21391 5.80108 9.3093 5.84059 9.40875 5.84059H9.4215C10.1055 5.88934 10.6035 6.11734 10.9523 6.49159C11.31 6.87709 11.4953 7.35634 11.481 7.94884C11.4787 8.0483 11.516 8.14459 11.5847 8.21654C11.6534 8.28848 11.7479 8.33018 11.8474 8.33247C11.9468 8.33476 12.0431 8.29744 12.1151 8.22873C12.187 8.16002 12.2287 8.06555 12.231 7.96609C12.249 7.18834 11.9985 6.51709 11.502 5.98159V5.98009C10.9943 5.43559 10.2975 5.14759 9.459 5.09134L9.44625 5.08984L9.40875 5.09059Z" fill="currentColor"/>
<path d="M9.3945 6.34715C9.34432 6.34273 9.29375 6.34846 9.24583 6.364C9.19791 6.37955 9.15361 6.40459 9.11558 6.43763C9.07755 6.47068 9.04657 6.51105 9.02449 6.55633C9.0024 6.60161 8.98967 6.65088 8.98705 6.70119C8.98443 6.7515 8.99197 6.80183 9.00923 6.84916C9.02649 6.89649 9.05311 6.93986 9.0875 6.97668C9.12189 7.0135 9.16334 7.04301 9.20939 7.06345C9.25543 7.08389 9.30513 7.09484 9.3555 7.09565C9.669 7.11215 9.86925 7.20665 9.99525 7.3334C10.122 7.4609 10.2165 7.66565 10.2338 7.9859C10.2347 8.03623 10.2457 8.08585 10.2663 8.13181C10.2868 8.17777 10.3163 8.21913 10.3532 8.25342C10.39 8.28772 10.4334 8.31424 10.4807 8.33142C10.528 8.3486 10.5783 8.35607 10.6286 8.3534C10.6788 8.35073 10.728 8.33797 10.7733 8.31588C10.8185 8.29379 10.8588 8.26282 10.8918 8.22482C10.9248 8.18682 10.9498 8.14256 10.9654 8.09468C10.9809 8.04681 10.9867 7.9963 10.9823 7.94615C10.9583 7.49615 10.8173 7.09865 10.5285 6.80615C10.2383 6.51365 9.843 6.37115 9.3945 6.34715Z" fill="currentColor"/>
<path fill-rule="evenodd" clip-rule="evenodd" d="M5.30025 1.89522C7.6868 1.36175 10.1617 1.36175 12.5483 1.89522L12.8025 1.95147C13.5002 2.10743 14.1409 2.45377 14.6536 2.95199C15.1662 3.45021 15.5307 4.08081 15.7065 4.77372C16.3123 7.16089 16.3123 9.66155 15.7065 12.0487C15.5307 12.7416 15.1662 13.3722 14.6536 13.8705C14.1409 14.3687 13.5002 14.715 12.8025 14.871L12.5475 14.9272C11.0528 15.2615 9.51899 15.3874 7.98975 15.3015L6 17.082C5.92499 17.1491 5.83332 17.1949 5.73457 17.2146C5.63582 17.2342 5.5336 17.227 5.43859 17.1937C5.34358 17.1604 5.25925 17.1021 5.19442 17.0251C5.12958 16.9481 5.08662 16.855 5.07 16.7557L4.74075 14.7892C4.10939 14.5928 3.53896 14.2377 3.08398 13.7579C2.629 13.2781 2.30468 12.6896 2.142 12.0487C1.53619 9.66156 1.53619 7.16089 2.142 4.77372C2.31782 4.08081 2.6823 3.45021 3.19495 2.95199C3.70761 2.45377 4.34835 2.10743 5.046 1.95147L5.30025 1.89522ZM12.303 2.99247C10.078 2.49508 7.77054 2.49508 5.5455 2.99247L5.2905 3.04947C4.79604 3.16021 4.34195 3.40584 3.97866 3.75907C3.61536 4.1123 3.35709 4.55932 3.2325 5.05047C2.67279 7.25601 2.67279 9.56643 3.2325 11.772C3.35714 12.2632 3.61554 12.7103 3.97897 13.0635C4.34241 13.4168 4.79665 13.6624 5.29125 13.773L5.35875 13.788C5.46795 13.8124 5.56738 13.8688 5.64433 13.9501C5.72129 14.0313 5.77226 14.1336 5.79075 14.244L6.01125 15.5625L7.41525 14.3062C7.47132 14.2559 7.53692 14.2174 7.60817 14.1929C7.67941 14.1684 7.75485 14.1585 7.83 14.1637C9.3293 14.2701 10.8361 14.1577 12.303 13.83L12.5573 13.773C13.0519 13.6624 13.5061 13.4168 13.8695 13.0635C14.233 12.7103 14.4914 12.2632 14.616 11.772C15.1755 9.56697 15.1755 7.25622 14.616 5.05047C14.4914 4.55922 14.233 4.11214 13.8695 3.7589C13.5061 3.40566 13.0519 3.16009 12.5573 3.04947L12.303 2.99247Z" fill="currentColor"/>
</svg>
