<svg width="16" height="17" viewBox="0 0 16 17" fill="none" xmlns="http://www.w3.org/2000/svg">
<path d="M11.6656 9.73888C11.467 9.6392 10.4879 9.15689 10.3055 9.09097C10.123 9.02425 9.99035 8.99129 9.85772 9.19065C9.72508 9.3892 9.34325 9.83856 9.22669 9.9712C9.11093 10.1038 8.99437 10.1199 8.79582 10.0202C8.20905 9.78663 7.66746 9.45259 7.19534 9.03309C6.7599 8.6306 6.3866 8.16574 6.08762 7.65367C5.97186 7.45431 6.07556 7.3466 6.17524 7.24772C6.26447 7.15849 6.3746 7.01541 6.47347 6.89885C6.55537 6.79822 6.62249 6.68643 6.67283 6.56685C6.69932 6.5119 6.71165 6.4512 6.7087 6.39027C6.70575 6.32934 6.68762 6.27012 6.65595 6.21798C6.60611 6.1183 6.2082 5.1384 6.0426 4.73968C5.88103 4.35222 5.71704 4.40447 5.59405 4.39804C5.4783 4.39242 5.34566 4.39081 5.21302 4.39081C5.11213 4.39362 5.0129 4.41729 4.9216 4.46031C4.83029 4.50333 4.74888 4.56479 4.68248 4.64081C4.45741 4.85394 4.27921 5.11161 4.15922 5.39741C4.03923 5.6832 3.98007 5.99086 3.98553 6.30078C4.05008 7.05177 4.33254 7.76757 4.79823 8.36026C5.65186 9.64005 6.82366 10.6758 8.19855 11.3659C8.56942 11.5252 8.94828 11.6653 9.3336 11.7855C9.73983 11.9088 10.1692 11.9355 10.5876 11.8635C10.8647 11.8073 11.1271 11.6943 11.3584 11.5316C11.5896 11.3689 11.7845 11.16 11.9309 10.9181C12.0615 10.6207 12.1017 10.2914 12.0466 9.9712C11.9976 9.88759 11.865 9.83856 11.6656 9.73888ZM13.6688 2.44065C12.3022 1.07437 10.4857 0.251267 8.55739 0.124575C6.62912 -0.00211685 4.7205 0.576238 3.18688 1.75196C1.65327 2.92769 0.599163 4.62067 0.220815 6.5157C-0.157533 8.41074 0.165661 10.3787 1.13023 12.0532L0 16.181L4.22347 15.0741C5.39161 15.7101 6.70047 16.0434 8.03055 16.0435H8.03376C9.6094 16.0427 11.1495 15.5749 12.4593 14.6992C13.7692 13.8236 14.7902 12.5793 15.3932 11.1236C15.9962 9.66791 16.1543 8.06616 15.8473 6.5207C15.5404 4.97524 14.7823 3.55543 13.6688 2.44064V2.44065ZM11.5523 13.6858C10.4977 14.3468 9.27835 14.6976 8.03376 14.6979H8.03055C6.84478 14.6978 5.68086 14.3788 4.66077 13.7742L4.41881 13.6312L1.91238 14.2887L2.58119 11.845L2.42444 11.5942C1.72873 10.4847 1.37764 9.19389 1.41554 7.8849C1.45345 6.57591 1.87866 5.30756 2.6374 4.24022C3.39614 3.17289 4.45433 2.35451 5.67817 1.88857C6.90202 1.42263 8.23654 1.33006 9.51299 1.62256C10.7894 1.91506 11.9505 2.57949 12.8493 3.53184C13.7482 4.4842 14.3444 5.68169 14.5627 6.97291C14.781 8.26413 14.6115 9.59108 14.0756 10.786C13.5398 11.9808 12.6616 12.99 11.5523 13.6858Z" fill="currentColor"/>
</svg>
