<svg width="22" height="17" viewBox="0 0 22 17" fill="none" xmlns="http://www.w3.org/2000/svg">
<path d="M20.5813 3.30731C20.4733 2.87588 20.2534 2.4806 19.9438 2.16137C19.6341 1.84215 19.2457 1.61029 18.8178 1.48922C17.2542 1.10742 11 1.10742 11 1.10742C11 1.10742 4.74578 1.10742 3.18222 1.52558C2.75429 1.64665 2.36588 1.87851 2.05623 2.19773C1.74659 2.51696 1.52666 2.91225 1.41868 3.34367C1.13253 4.93046 0.992553 6.54015 1.00052 8.15251C0.99032 9.77701 1.1303 11.399 1.41868 12.9977C1.53773 13.4157 1.76258 13.796 2.0715 14.1017C2.38043 14.4075 2.76299 14.6284 3.18222 14.7431C4.74578 15.1612 11 15.1612 11 15.1612C11 15.1612 17.2542 15.1612 18.8178 14.7431C19.2457 14.622 19.6341 14.3901 19.9438 14.0709C20.2534 13.7517 20.4733 13.3564 20.5813 12.925C20.8653 11.3502 21.0052 9.75273 20.9995 8.15251C21.0097 6.52801 20.8697 4.90604 20.5813 3.30731Z" stroke="currentColor" stroke-width="2" stroke-linecap="round" stroke-linejoin="round"/>
<path d="M8.75 5.57275C8.75 5.09547 8.75 4.85683 8.84974 4.7236C8.93666 4.6075 9.06971 4.53486 9.21438 4.52453C9.38038 4.51267 9.58112 4.64172 9.98261 4.89981L13.9254 7.43448C14.2738 7.65844 14.448 7.77042 14.5082 7.91281C14.5607 8.03723 14.5607 8.17762 14.5082 8.30203C14.448 8.44442 14.2738 8.5564 13.9254 8.78036L9.9826 11.315C9.58112 11.5731 9.38038 11.7022 9.21438 11.6903C9.06971 11.68 8.93666 11.6073 8.84974 11.4912C8.75 11.358 8.75 11.1194 8.75 10.6421V5.57275Z" stroke="currentColor" stroke-width="2" stroke-linecap="round" stroke-linejoin="round"/>
</svg>
